<svg version="1.1" xmlns="http://www.w3.org/2000/svg" viewBox="0 0 1029.0968674053797 334.9256134033203" width="1029.0968674053797" height="334.9256134033203">
  <!-- svg-source:excalidraw -->
  
  <defs>
    <style class="style-fonts">
      @font-face {
        font-family: "Virgil";
        src: url("https://file%2B.vscode-resource.vscode-cdn.net/Users/jerry/.vscode/extensions/pomdtr.excalidraw-editor-3.7.4/public//dist/excalidraw-assets/Virgil.woff2");
      }
      @font-face {
        font-family: "Cascadia";
        src: url("https://file%2B.vscode-resource.vscode-cdn.net/Users/jerry/.vscode/extensions/pomdtr.excalidraw-editor-3.7.4/public//dist/excalidraw-assets/Cascadia.woff2");
      }
      @font-face {
        font-family: "Assistant";
        src: url("https://file%2B.vscode-resource.vscode-cdn.net/Users/jerry/.vscode/extensions/pomdtr.excalidraw-editor-3.7.4/public//dist/excalidraw-assets/Assistant-Regular.woff2");
      }
    </style>
    
  </defs>
  <rect x="0" y="0" width="1029.0968674053797" height="334.9256134033203" fill="#ffffff"></rect><g stroke-linecap="round" transform="translate(163.18224861070053 10) rotate(0 229.86102294921872 157.46280670166016)"><path d="M32 0 C170.9 1.07, 310.97 0.22, 427.72 0 M32 0 C139.67 1.88, 246.71 1.46, 427.72 0 M427.72 0 C449.23 1.69, 459.96 9.74, 459.72 32 M427.72 0 C447.18 2.25, 461.78 12.83, 459.72 32 M459.72 32 C460.29 95.19, 458.61 155.92, 459.72 282.93 M459.72 32 C460.02 128.37, 459.57 223.19, 459.72 282.93 M459.72 282.93 C460.52 305.55, 450.25 314.17, 427.72 314.93 M459.72 282.93 C459.37 305.21, 447.62 315.71, 427.72 314.93 M427.72 314.93 C339.41 315.92, 251.65 317.49, 32 314.93 M427.72 314.93 C334.88 315.56, 241.45 315.72, 32 314.93 M32 314.93 C11.58 315.53, 1.97 304.19, 0 282.93 M32 314.93 C12.28 315.2, 1.21 305.52, 0 282.93 M0 282.93 C1.37 198.71, -0.24 113.84, 0 32 M0 282.93 C0.58 183.8, 0.31 85.53, 0 32 M0 32 C-1.72 12.17, 12.58 1.25, 32 0 M0 32 C2.1 9.66, 9.89 1.77, 32 0" stroke="#1e1e1e" stroke-width="2" fill="none"></path></g><g stroke-linecap="round" transform="translate(479.4985742816959 79.1101662104821) rotate(0 58.464447021484375 25.209442138671875)"><path d="M12.6 0 C43.68 -2.17, 68.28 -0.46, 104.32 0 C114.19 -0.77, 117.72 3.2, 116.93 12.6 C119.21 17.58, 117.62 24.03, 116.93 37.81 C116.39 47.37, 112.35 47.01, 104.32 50.42 C75.16 48.38, 47.04 51.8, 12.6 50.42 C6.81 47.7, -3.08 45.84, 0 37.81 C1.47 28.98, 0.6 23.76, 0 12.6 C1.87 5.88, 1.72 2.26, 12.6 0" stroke="none" stroke-width="0" fill="#b2f2bb"></path><path d="M12.6 0 C47.32 -1.6, 79.46 0.55, 104.32 0 M12.6 0 C49.68 -0.92, 86.36 -0.8, 104.32 0 M104.32 0 C113.15 -0.64, 117.18 3.15, 116.93 12.6 M104.32 0 C112.19 -1.94, 117.51 5.46, 116.93 12.6 M116.93 12.6 C117.9 22.51, 115.35 30.35, 116.93 37.81 M116.93 12.6 C117.52 17.27, 117.06 23.55, 116.93 37.81 M116.93 37.81 C116.39 47.66, 112.8 51.57, 104.32 50.42 M116.93 37.81 C116.37 45.41, 112.55 48.59, 104.32 50.42 M104.32 50.42 C74.55 50.37, 43.1 51.83, 12.6 50.42 M104.32 50.42 C83.37 51.17, 63.23 49.58, 12.6 50.42 M12.6 50.42 C4.12 50.21, 0.88 46.54, 0 37.81 M12.6 50.42 C3.6 48.23, -0.6 44.6, 0 37.81 M0 37.81 C-0.92 29.4, -1.22 22.69, 0 12.6 M0 37.81 C-0.21 30.86, -0.33 25.64, 0 12.6 M0 12.6 C-0.42 5.67, 5.62 -0.26, 12.6 0 M0 12.6 C-0.25 3.67, 1.91 1.68, 12.6 0" stroke="#1e1e1e" stroke-width="2" fill="none"></path></g><g transform="translate(513.8830423603092 91.81960834915398) rotate(0 24.079978942871094 12.5)"><text x="24.079978942871094" y="0" font-family="Virgil, Segoe UI Emoji" font-size="20px" fill="#1e1e1e" text-anchor="middle" style="white-space: pre;" direction="ltr" dominant-baseline="text-before-edge">node1</text></g><g stroke-linecap="round" transform="translate(480.35483648872713 162.22851337845086) rotate(0 58.464447021484375 25.209442138671875)"><path d="M12.6 0 C44.67 -3.67, 71.51 1.81, 104.32 0 C115.66 -0.19, 117.44 0.74, 116.93 12.6 C114.41 20, 114.93 27.77, 116.93 37.81 C118.48 44.93, 109.34 47.79, 104.32 50.42 C76.08 49.33, 52.01 52.48, 12.6 50.42 C6.54 48.95, -2.68 47.84, 0 37.81 C-0.07 34.04, -1.37 21.67, 0 12.6 C1.13 2.68, 3.68 -0.76, 12.6 0" stroke="none" stroke-width="0" fill="#b2f2bb"></path><path d="M12.6 0 C33.01 1.23, 56.6 -1.85, 104.32 0 M12.6 0 C41.41 -1.67, 72.37 -0.47, 104.32 0 M104.32 0 C112.03 0.68, 118.29 4.47, 116.93 12.6 M104.32 0 C113.93 0.3, 119.13 5.75, 116.93 12.6 M116.93 12.6 C115.18 21.85, 115.4 30.26, 116.93 37.81 M116.93 12.6 C117.59 18.08, 116.21 23.43, 116.93 37.81 M116.93 37.81 C116.92 47.1, 114.1 49.97, 104.32 50.42 M116.93 37.81 C115.98 44.46, 111.83 48.62, 104.32 50.42 M104.32 50.42 C69.24 50.73, 32.55 50.6, 12.6 50.42 M104.32 50.42 C73.4 50.54, 41.22 48.78, 12.6 50.42 M12.6 50.42 C5.08 50.35, 1.48 46.61, 0 37.81 M12.6 50.42 C2.56 49.45, 0.39 45.04, 0 37.81 M0 37.81 C1.58 26.49, 1 18.93, 0 12.6 M0 37.81 C-0.83 29.1, 0.31 20.43, 0 12.6 M0 12.6 C-1.75 5.86, 2.79 1.85, 12.6 0 M0 12.6 C-2.19 5.63, 3.56 -1.88, 12.6 0" stroke="#1e1e1e" stroke-width="2" fill="none"></path></g><g transform="translate(510.32930853462557 174.93795551712273) rotate(0 28.489974975585938 12.5)"><text x="28.489974975585938" y="0" font-family="Virgil, Segoe UI Emoji" font-size="20px" fill="#1e1e1e" text-anchor="middle" style="white-space: pre;" direction="ltr" dominant-baseline="text-before-edge">node2</text></g><g stroke-linecap="round" transform="translate(479.79767082905454 243.2467628901696) rotate(0 58.464447021484375 25.209442138671875)"><path d="M12.6 0 C42.64 1.16, 67.14 -2.13, 104.32 0 C110.46 -1.81, 119.92 1.6, 116.93 12.6 C117.78 18.11, 115.39 26.48, 116.93 37.81 C116.01 44.98, 111.4 53.53, 104.32 50.42 C84.31 50.15, 55.06 48.61, 12.6 50.42 C6.74 49.54, -1.27 45.07, 0 37.81 C-1.1 35.57, -0.92 25.92, 0 12.6 C3.37 4.34, 7.16 -1.85, 12.6 0" stroke="none" stroke-width="0" fill="#a5d8ff"></path><path d="M12.6 0 C36.62 1.19, 57.66 -1.4, 104.32 0 M12.6 0 C45.87 -0.71, 80.18 0.37, 104.32 0 M104.32 0 C112.78 1.35, 118.89 6.19, 116.93 12.6 M104.32 0 C112.26 1.99, 118.04 2.1, 116.93 12.6 M116.93 12.6 C115.23 17.64, 115.18 24.58, 116.93 37.81 M116.93 12.6 C117 21.2, 116.49 31.11, 116.93 37.81 M116.93 37.81 C118.45 47.08, 114.07 51.73, 104.32 50.42 M116.93 37.81 C115.79 48.38, 111.47 50.51, 104.32 50.42 M104.32 50.42 C82.65 51.62, 63.13 52.27, 12.6 50.42 M104.32 50.42 C79.23 51.22, 53.96 51.62, 12.6 50.42 M12.6 50.42 C4.66 51.38, -0.62 47.73, 0 37.81 M12.6 50.42 C2.95 50.38, -0.13 45.88, 0 37.81 M0 37.81 C-0.62 28.56, -0.51 23.38, 0 12.6 M0 37.81 C-0.76 31.95, -0.04 25.28, 0 12.6 M0 12.6 C0.75 3.05, 5.89 -0.15, 12.6 0 M0 12.6 C-0.05 1.92, 5.39 0.47, 12.6 0" stroke="#1e1e1e" stroke-width="2" fill="none"></path></g><g transform="translate(510.0821404335467 255.95620502884148) rotate(0 28.179977416992188 12.5)"><text x="28.179977416992188" y="0" font-family="Virgil, Segoe UI Emoji" font-size="20px" fill="#1e1e1e" text-anchor="middle" style="white-space: pre;" direction="ltr" dominant-baseline="text-before-edge">node3</text></g><g stroke-linecap="round" transform="translate(356.09754278755526 75.18766560013054) rotate(0 32.3026123046875 50.57933044433594)"><path d="M16.15 0 C25.82 1.75, 30.43 -1.36, 48.45 0 C62.56 -0.53, 65.58 7.8, 64.61 16.15 C66.54 33.94, 65.25 53.22, 64.61 85.01 C66 95.96, 57.08 102.22, 48.45 101.16 C44.36 98.18, 33.9 101.07, 16.15 101.16 C7.8 100.05, 1.32 96.23, 0 85.01 C-3.46 63.74, 2.2 49.06, 0 16.15 C1.19 6.31, 7.55 3.12, 16.15 0" stroke="none" stroke-width="0" fill="#ffec99"></path><path d="M16.15 0 C28.6 -0.75, 40.43 1.37, 48.45 0 M16.15 0 C26.38 0.3, 37.27 0.17, 48.45 0 M48.45 0 C58.14 0.28, 62.85 4.96, 64.61 16.15 M48.45 0 C59.77 -0.76, 66.46 5.44, 64.61 16.15 M64.61 16.15 C63.59 33.34, 63.33 47.17, 64.61 85.01 M64.61 16.15 C65.18 36.2, 64.02 55.13, 64.61 85.01 M64.61 85.01 C64.36 96.93, 59.93 101.73, 48.45 101.16 M64.61 85.01 C65.02 95.1, 61.3 100.42, 48.45 101.16 M48.45 101.16 C35.25 102.49, 26.2 103.43, 16.15 101.16 M48.45 101.16 C42.24 100.68, 33.83 101.4, 16.15 101.16 M16.15 101.16 C5.56 101.17, 1.52 93.91, 0 85.01 M16.15 101.16 C5.61 102.54, -1.63 98.04, 0 85.01 M0 85.01 C1.01 64.29, 1.2 38.91, 0 16.15 M0 85.01 C0.59 62.73, 1.25 40.91, 0 16.15 M0 16.15 C0.94 5.18, 5.24 -1.44, 16.15 0 M0 16.15 C-1.12 4.22, 5.56 -1.41, 16.15 0" stroke="#1e1e1e" stroke-width="2" fill="none"></path></g><g transform="translate(369.06016638374666 113.26699604446648) rotate(0 19.339988708496094 12.5)"><text x="19.339988708496094" y="0" font-family="Virgil, Segoe UI Emoji" font-size="20px" fill="#1e1e1e" text-anchor="middle" style="white-space: pre;" direction="ltr" dominant-baseline="text-before-edge">SLB</text></g><g stroke-linecap="round" transform="translate(355.064034486774 193.47221149856804) rotate(0 32.3026123046875 50.57933044433594)"><path d="M16.15 0 C25.78 0.93, 33.61 -2.31, 48.45 0 C57.28 -3.16, 63.9 2.96, 64.61 16.15 C63.52 37.32, 64.64 63.23, 64.61 85.01 C65.25 97.14, 56.89 98.03, 48.45 101.16 C42.56 101.9, 35.62 98.23, 16.15 101.16 C7.96 103.43, -1.33 98.59, 0 85.01 C0.41 67.7, -0.57 47.46, 0 16.15 C2.27 7.41, 2.83 2.6, 16.15 0" stroke="none" stroke-width="0" fill="#ffec99"></path><path d="M16.15 0 C24.9 -0.56, 35.1 -1.53, 48.45 0 M16.15 0 C26.5 0.96, 38.82 0.18, 48.45 0 M48.45 0 C59.6 -0.41, 65.22 7.26, 64.61 16.15 M48.45 0 C60.91 -1.22, 64.62 7.11, 64.61 16.15 M64.61 16.15 C66.2 37.65, 63.3 60.89, 64.61 85.01 M64.61 16.15 C64.12 31.1, 63.84 45.88, 64.61 85.01 M64.61 85.01 C63.76 96.97, 60.88 100.55, 48.45 101.16 M64.61 85.01 C63.18 95.27, 60.08 102.91, 48.45 101.16 M48.45 101.16 C38 100.59, 25.92 101.66, 16.15 101.16 M48.45 101.16 C37.87 101.08, 26.35 101.38, 16.15 101.16 M16.15 101.16 C4.69 100.87, -0.27 96.08, 0 85.01 M16.15 101.16 C4.19 100.34, 0.76 95.09, 0 85.01 M0 85.01 C2.38 62.11, 0.56 40.18, 0 16.15 M0 85.01 C0.7 61.11, 0.67 38.22, 0 16.15 M0 16.15 C1.05 6.95, 4 -0.7, 16.15 0 M0 16.15 C-1.36 7.26, 4.02 0.16, 16.15 0" stroke="#1e1e1e" stroke-width="2" fill="none"></path></g><g transform="translate(368.0266580829654 231.55154194290398) rotate(0 19.339988708496094 12.5)"><text x="19.339988708496094" y="0" font-family="Virgil, Segoe UI Emoji" font-size="20px" fill="#1e1e1e" text-anchor="middle" style="white-space: pre;" direction="ltr" dominant-baseline="text-before-edge">SLB</text></g><g stroke-linecap="round"><g transform="translate(421.28519953099726 116.58183276642959) rotate(0 27.638702392578125 -6.54937744140625)"><path d="M-0.47 -0.96 C8.91 -3.24, 46.82 -12.12, 56.25 -14.15 M1.49 1.15 C10.79 -0.98, 46.76 -10.99, 55.81 -13.17" stroke="#1e1e1e" stroke-width="2" fill="none"></path></g><g transform="translate(421.28519953099726 116.58183276642959) rotate(0 27.638702392578125 -6.54937744140625)"><path d="M32.44 2.98 C37.85 -0.12, 44.65 -5.15, 55.81 -13.17 M32.44 2.98 C39.42 -1.32, 45.17 -5.84, 55.81 -13.17" stroke="#1e1e1e" stroke-width="2" fill="none"></path></g><g transform="translate(421.28519953099726 116.58183276642959) rotate(0 27.638702392578125 -6.54937744140625)"><path d="M27.53 -15.82 C34.33 -13.3, 42.59 -12.74, 55.81 -13.17 M27.53 -15.82 C36.11 -14.62, 43.31 -13.65, 55.81 -13.17" stroke="#1e1e1e" stroke-width="2" fill="none"></path></g></g><mask></mask><g stroke-linecap="round"><g transform="translate(426.05161798802857 136.09757163935186) rotate(0 25.225738525390597 20.412570988827127)"><path d="M0.94 1.12 C9.39 7.9, 41.78 34.76, 50.19 41.53 M-0.02 0.66 C8.29 7.02, 40.58 33.23, 49.1 39.77" stroke="#1e1e1e" stroke-width="2" fill="none"></path></g><g transform="translate(426.05161798802857 136.09757163935186) rotate(0 25.225738525390597 20.412570988827127)"><path d="M20.63 30.32 C29.96 32.11, 36.67 36.56, 49.1 39.77 M20.63 30.32 C31.5 33.81, 43.01 38.62, 49.1 39.77" stroke="#1e1e1e" stroke-width="2" fill="none"></path></g><g transform="translate(426.05161798802857 136.09757163935186) rotate(0 25.225738525390597 20.412570988827127)"><path d="M33.36 14.23 C39.5 20.31, 42.89 28.94, 49.1 39.77 M33.36 14.23 C39.3 23.72, 46 34.6, 49.1 39.77" stroke="#1e1e1e" stroke-width="2" fill="none"></path></g></g><mask></mask><g stroke-linecap="round"><g transform="translate(427.40965021459107 264.83863042251096) rotate(0 21.8608519846168 1.0655453455839279)"><path d="M-0.53 0.14 C6.76 0.48, 36.87 1.5, 44.22 1.75 M0.19 -0.26 C7.42 0.17, 36.88 1.87, 44.05 2.25" stroke="#1e1e1e" stroke-width="2" fill="none"></path></g><g transform="translate(427.40965021459107 264.83863042251096) rotate(0 21.8608519846168 1.0655453455839279)"><path d="M23.1 8.58 C31.39 7.17, 38.45 3.65, 44.05 2.25 M23.1 8.58 C27.49 7.51, 31.51 5.87, 44.05 2.25" stroke="#1e1e1e" stroke-width="2" fill="none"></path></g><g transform="translate(427.40965021459107 264.83863042251096) rotate(0 21.8608519846168 1.0655453455839279)"><path d="M23.93 -6.37 C31.86 -2.06, 38.61 0.14, 44.05 2.25 M23.93 -6.37 C28.16 -4.29, 32 -2.78, 44.05 2.25" stroke="#1e1e1e" stroke-width="2" fill="none"></path></g></g><mask></mask><g stroke-linecap="round" transform="translate(202.2348275546978 73.8603363941103) rotate(0 45.754974365234375 42.5)"><path d="M21.25 0 C39.94 0.73, 52.31 3.59, 70.26 0 C84.67 -2.18, 92.42 9.09, 91.51 21.25 C94.46 29.82, 92.66 40.9, 91.51 63.75 C92.83 78.32, 85.28 84.02, 70.26 85 C62.94 82.84, 49.7 82.95, 21.25 85 C5.02 88.13, 2.71 77.57, 0 63.75 C-0.66 48.2, 0.11 28.36, 0 21.25 C-1.24 8.98, 8.01 0.86, 21.25 0" stroke="none" stroke-width="0" fill="#ffc9c9"></path><path d="M21.25 0 C35.18 0.09, 47.19 -1.39, 70.26 0 M21.25 0 C35.66 -0.2, 51.78 1.25, 70.26 0 M70.26 0 C83.28 -1.36, 92.74 7.36, 91.51 21.25 M70.26 0 C84.69 2.18, 92.56 6.96, 91.51 21.25 M91.51 21.25 C89.74 33.25, 92.72 43.94, 91.51 63.75 M91.51 21.25 C91.23 34.33, 92.44 45.95, 91.51 63.75 M91.51 63.75 C90.5 77.55, 82.75 83.48, 70.26 85 M91.51 63.75 C91.23 79.72, 86.09 85.58, 70.26 85 M70.26 85 C53.47 85.74, 38.56 83.41, 21.25 85 M70.26 85 C57.23 85.51, 43.42 84.49, 21.25 85 M21.25 85 C5.17 85.72, 1.68 77.71, 0 63.75 M21.25 85 C9.06 84.93, 1.84 80.05, 0 63.75 M0 63.75 C1.4 49.35, -1.44 37.96, 0 21.25 M0 63.75 C-0.66 54.87, 0.17 46.08, 0 21.25 M0 21.25 C1.06 6.74, 7.76 -0.66, 21.25 0 M0 21.25 C1.53 4.92, 6.84 -0.43, 21.25 0" stroke="#1e1e1e" stroke-width="2" fill="none"></path></g><g transform="translate(219.31982663917046 103.8603363941103) rotate(0 28.66997528076172 12.5)"><text x="28.66997528076172" y="0" font-family="Virgil, Segoe UI Emoji" font-size="20px" fill="#1e1e1e" text-anchor="middle" style="white-space: pre;" direction="ltr" dominant-baseline="text-before-edge">m1.com</text></g><g stroke-linecap="round" transform="translate(197.9058480625103 189.814211121807) rotate(0 45.754974365234375 42.5)"><path d="M21.25 0 C42.93 2.78, 61.56 1.19, 70.26 0 C81.34 0.79, 88.95 3.79, 91.51 21.25 C91.15 29.29, 93.29 39.05, 91.51 63.75 C91.58 78.96, 86.21 83.74, 70.26 85 C54.46 88.04, 38.09 86.28, 21.25 85 C9.99 82.09, 0.34 78.41, 0 63.75 C2.52 51.69, -0.78 41.43, 0 21.25 C2.79 5.85, 8.18 -0.87, 21.25 0" stroke="none" stroke-width="0" fill="#ffc9c9"></path><path d="M21.25 0 C30.91 -0.94, 44.41 -1.04, 70.26 0 M21.25 0 C39.92 -0.22, 58.14 -0.55, 70.26 0 M70.26 0 C82.51 -0.87, 90.34 6.54, 91.51 21.25 M70.26 0 C82.5 0.93, 91.99 6.3, 91.51 21.25 M91.51 21.25 C90.97 36.13, 91.34 53.38, 91.51 63.75 M91.51 21.25 C90.72 36.1, 91.08 51.97, 91.51 63.75 M91.51 63.75 C92.67 76.39, 83.68 84.96, 70.26 85 M91.51 63.75 C92.87 78.06, 84.67 83.09, 70.26 85 M70.26 85 C54.68 84.01, 41.68 86.79, 21.25 85 M70.26 85 C50.45 84.91, 31.44 85.69, 21.25 85 M21.25 85 C8.53 84.74, 0.51 78.5, 0 63.75 M21.25 85 C9.16 82.73, 2.2 76.5, 0 63.75 M0 63.75 C0.08 47.58, 0.29 32.01, 0 21.25 M0 63.75 C0.6 48.86, 0.12 32.36, 0 21.25 M0 21.25 C0.57 8.42, 8.93 1.33, 21.25 0 M0 21.25 C1.93 8.74, 9.21 -0.15, 21.25 0" stroke="#1e1e1e" stroke-width="2" fill="none"></path></g><g transform="translate(210.5808511142681 219.814211121807) rotate(0 33.07997131347656 12.5)"><text x="33.07997131347656" y="0" font-family="Virgil, Segoe UI Emoji" font-size="20px" fill="#1e1e1e" text-anchor="middle" style="white-space: pre;" direction="ltr" dominant-baseline="text-before-edge">m2.com</text></g><g stroke-linecap="round"><g transform="translate(295.87539151954155 113.25016575878706) rotate(0 28.35784912109375 1.3363475986435844)"><path d="M0.7 -0.74 C10.08 -0.33, 47.9 1.03, 57.29 1.54 M-0.39 1.48 C8.79 2.09, 47.17 2.15, 56.64 2.48" stroke="#1e1e1e" stroke-width="2" fill="none"></path></g><g transform="translate(295.87539151954155 113.25016575878706) rotate(0 28.35784912109375 1.3363475986435844)"><path d="M29.8 11.74 C38.99 8.97, 48.68 5.01, 56.64 2.48 M29.8 11.74 C37.74 9.23, 44.41 7.06, 56.64 2.48" stroke="#1e1e1e" stroke-width="2" fill="none"></path></g><g transform="translate(295.87539151954155 113.25016575878706) rotate(0 28.35784912109375 1.3363475986435844)"><path d="M30.13 -7.67 C39.03 -2.96, 48.6 0.56, 56.64 2.48 M30.13 -7.67 C37.91 -4.92, 44.5 -1.82, 56.64 2.48" stroke="#1e1e1e" stroke-width="2" fill="none"></path></g></g><mask></mask><g stroke-linecap="round"><g transform="translate(297.27797941016655 132.17940394917807) rotate(0 26.83935546875 49.68590081639749)"><path d="M0.76 -1.02 C9.66 15.56, 44.75 82.84, 53.65 99.56 M-0.31 1.07 C8.42 17.24, 43.7 80.95, 52.68 97.54" stroke="#1e1e1e" stroke-width="2" fill="none"></path></g><g transform="translate(297.27797941016655 132.17940394917807) rotate(0 26.83935546875 49.68590081639749)"><path d="M30.13 77.75 C35.66 83.88, 44.87 91, 52.68 97.54 M30.13 77.75 C37.06 84.2, 42.69 88.79, 52.68 97.54" stroke="#1e1e1e" stroke-width="2" fill="none"></path></g><g transform="translate(297.27797941016655 132.17940394917807) rotate(0 26.83935546875 49.68590081639749)"><path d="M48.13 67.89 C47.92 77.27, 51.38 87.55, 52.68 97.54 M48.13 67.89 C49.64 77.2, 49.91 84.72, 52.68 97.54" stroke="#1e1e1e" stroke-width="2" fill="none"></path></g></g><mask></mask><g stroke-linecap="round"><g transform="translate(294.50551847266655 236.19998382688513) rotate(0 27.481201171875 0.811248779296875)"><path d="M0.97 0.08 C10.11 0.22, 46.97 1.28, 55.86 1.66 M0.02 -0.92 C8.99 -0.65, 46.52 3, 55.38 3.21" stroke="#1e1e1e" stroke-width="2" fill="none"></path></g><g transform="translate(294.50551847266655 236.19998382688513) rotate(0 27.481201171875 0.811248779296875)"><path d="M28.98 10.89 C39.21 9.22, 49.28 3.68, 55.38 3.21 M28.98 10.89 C38.43 7.38, 48.23 5.87, 55.38 3.21" stroke="#1e1e1e" stroke-width="2" fill="none"></path></g><g transform="translate(294.50551847266655 236.19998382688513) rotate(0 27.481201171875 0.811248779296875)"><path d="M30.22 -7.88 C40.1 -2.32, 49.69 -0.65, 55.38 3.21 M30.22 -7.88 C39.21 -4.65, 48.57 0.58, 55.38 3.21" stroke="#1e1e1e" stroke-width="2" fill="none"></path></g></g><mask></mask><g stroke-linecap="round" transform="translate(10 98.23528673992584) rotate(0 50.6046142578125 17.5)"><path d="M8.75 0 C24.58 0.75, 43.88 -1.07, 92.46 0 C96.25 -1.25, 99.35 0.84, 101.21 8.75 C99.42 15.32, 98.55 25.07, 101.21 26.25 C103.17 35.16, 96.1 32.55, 92.46 35 C64.63 39.94, 34.83 37.49, 8.75 35 C3.81 34.06, -1.19 30.73, 0 26.25 C2.45 22.93, -2.53 15.34, 0 8.75 C-1.94 -0.05, 1.75 -1.81, 8.75 0" stroke="none" stroke-width="0" fill="#b2f2bb"></path><path d="M8.75 0 C35.58 0.2, 57.82 -1.43, 92.46 0 M8.75 0 C32.91 -0.89, 55.81 -0.69, 92.46 0 M92.46 0 C96.74 -0.48, 99.82 3.47, 101.21 8.75 M92.46 0 C96.89 1.8, 102.93 4.06, 101.21 8.75 M101.21 8.75 C100.39 13.69, 100.99 19.77, 101.21 26.25 M101.21 8.75 C100.61 15.16, 102.19 20.5, 101.21 26.25 M101.21 26.25 C102.25 31.06, 99.54 34.93, 92.46 35 M101.21 26.25 C99.01 32.62, 96.24 34.11, 92.46 35 M92.46 35 C65.81 34.16, 39.56 35.01, 8.75 35 M92.46 35 C71.69 34.27, 51 33.91, 8.75 35 M8.75 35 C4.07 36.22, 0.43 32.97, 0 26.25 M8.75 35 C1.58 34.22, -0.83 33.5, 0 26.25 M0 26.25 C0.87 20.93, 1.3 12.88, 0 8.75 M0 26.25 C0.68 20.5, 0.05 15.57, 0 8.75 M0 8.75 C-0.38 1.53, 3.37 -1.85, 8.75 0 M0 8.75 C-2.11 2.71, 2.93 0.34, 8.75 0" stroke="#1e1e1e" stroke-width="2" fill="none"></path></g><g transform="translate(37.88462829589844 103.23528673992584) rotate(0 22.719985961914062 12.5)"><text x="22.719985961914062" y="0" font-family="Virgil, Segoe UI Emoji" font-size="20px" fill="#1e1e1e" text-anchor="middle" style="white-space: pre;" direction="ltr" dominant-baseline="text-before-edge">SDK1</text></g><g stroke-linecap="round" transform="translate(13.20989990234375 206.19952013836334) rotate(0 50.6046142578125 17.5)"><path d="M8.75 0 C34.52 3.09, 65.79 2.93, 92.46 0 C95.56 -2.42, 99.29 0.58, 101.21 8.75 C100.14 12.64, 100.61 18.3, 101.21 26.25 C101.33 28.96, 99.63 38.51, 92.46 35 C66.98 36.99, 37.54 39.79, 8.75 35 C4.33 31.98, -3.16 33.79, 0 26.25 C2.07 22.82, -0.95 14.18, 0 8.75 C3.59 3.85, 0.65 -3.34, 8.75 0" stroke="none" stroke-width="0" fill="#b2f2bb"></path><path d="M8.75 0 C34.58 0.44, 58.87 0.86, 92.46 0 M8.75 0 C39.01 0.47, 68.37 -0.54, 92.46 0 M92.46 0 C96.49 1.46, 102.27 1.63, 101.21 8.75 M92.46 0 C97.38 -0.57, 99.3 4.3, 101.21 8.75 M101.21 8.75 C102.08 15.49, 102.75 18.98, 101.21 26.25 M101.21 8.75 C100.74 13.12, 101.75 16.79, 101.21 26.25 M101.21 26.25 C102.55 32.54, 99.87 35.02, 92.46 35 M101.21 26.25 C102.5 32.33, 98.73 35.4, 92.46 35 M92.46 35 C59.17 34.03, 25.77 33.82, 8.75 35 M92.46 35 C69.88 35.91, 48.55 34.74, 8.75 35 M8.75 35 C1.9 34.65, 1.53 32.63, 0 26.25 M8.75 35 C1.17 36.87, -1.34 32.47, 0 26.25 M0 26.25 C0.57 22.41, 0.67 15.77, 0 8.75 M0 26.25 C-0.8 19.98, -0.35 12.6, 0 8.75 M0 8.75 C-0.48 0.96, 1.1 1.61, 8.75 0 M0 8.75 C-2.25 3.82, 1.23 -0.83, 8.75 0" stroke="#1e1e1e" stroke-width="2" fill="none"></path></g><g transform="translate(36.684532165527344 211.19952013836334) rotate(0 27.129981994628906 12.5)"><text x="27.129981994628906" y="0" font-family="Virgil, Segoe UI Emoji" font-size="20px" fill="#1e1e1e" text-anchor="middle" style="white-space: pre;" direction="ltr" dominant-baseline="text-before-edge">SDK2</text></g><g stroke-linecap="round"><g transform="translate(116.3946533203125 115.42290881023834) rotate(0 36.92045593261719 -0.1327757175473323)"><path d="M-0.47 -0.24 C11.54 -0.41, 60.66 -0.46, 72.97 -0.4 M1.48 -1.41 C13.78 -1.45, 63.4 1.17, 75.23 1.07" stroke="#1e1e1e" stroke-width="2" fill="none"></path></g><g transform="translate(116.3946533203125 115.42290881023834) rotate(0 36.92045593261719 -0.1327757175473323)"><path d="M46.78 10.58 C57.06 5.66, 67.97 2.82, 75.23 1.07 M46.78 10.58 C55.87 6.61, 65.89 4.86, 75.23 1.07" stroke="#1e1e1e" stroke-width="2" fill="none"></path></g><g transform="translate(116.3946533203125 115.42290881023834) rotate(0 36.92045593261719 -0.1327757175473323)"><path d="M47.32 -9.93 C57.51 -7.12, 68.21 -2.22, 75.23 1.07 M47.32 -9.93 C56.07 -7.1, 65.91 -2.05, 75.23 1.07" stroke="#1e1e1e" stroke-width="2" fill="none"></path></g></g><mask></mask><g stroke-linecap="round"><g transform="translate(120.74209594726562 226.45321276531647) rotate(0 35.456939697265625 0.7012939453125)"><path d="M-0.12 -0.63 C11.8 -0.38, 59.2 2.03, 70.84 2.31 M-1.64 1.66 C10.18 1.5, 57.57 0.58, 69.85 0.66" stroke="#1e1e1e" stroke-width="2" fill="none"></path></g><g transform="translate(120.74209594726562 226.45321276531647) rotate(0 35.456939697265625 0.7012939453125)"><path d="M41.75 11.15 C47.49 8.49, 56.9 4.12, 69.85 0.66 M41.75 11.15 C48.26 8.89, 57.69 5.63, 69.85 0.66" stroke="#1e1e1e" stroke-width="2" fill="none"></path></g><g transform="translate(120.74209594726562 226.45321276531647) rotate(0 35.456939697265625 0.7012939453125)"><path d="M41.58 -9.37 C47.5 -7.02, 56.96 -6.38, 69.85 0.66 M41.58 -9.37 C48.29 -6.11, 57.77 -3.85, 69.85 0.66" stroke="#1e1e1e" stroke-width="2" fill="none"></path></g></g><mask></mask><g stroke-linecap="round" transform="translate(850.397038303817 73.1204068658669) rotate(0 84.3499145507813 108.25335693359375)"><path d="M32 0 C56.96 1.15, 80.4 1.18, 136.7 0 M32 0 C53.86 -0.64, 74.82 -0.68, 136.7 0 M136.7 0 C159.31 -1.27, 167.95 9.56, 168.7 32 M136.7 0 C160.32 1.67, 170.75 9.11, 168.7 32 M168.7 32 C169.59 81.68, 166.57 131.71, 168.7 184.51 M168.7 32 C168.45 70.39, 168.51 108.52, 168.7 184.51 M168.7 184.51 C166.79 205.67, 159.42 216.97, 136.7 216.51 M168.7 184.51 C169.86 207.6, 156.84 214.53, 136.7 216.51 M136.7 216.51 C104 216.25, 67.47 217.09, 32 216.51 M136.7 216.51 C105.33 217.49, 73.64 216.34, 32 216.51 M32 216.51 C8.77 215.64, -0.49 206.75, 0 184.51 M32 216.51 C11.67 214.96, -0.27 204.37, 0 184.51 M0 184.51 C-2.05 148.68, 0.93 112.35, 0 32 M0 184.51 C-1.24 141.33, 0.35 99.79, 0 32 M0 32 C-1.01 9.53, 9.82 1.78, 32 0 M0 32 C-0.47 9.59, 9.89 0.37, 32 0" stroke="#1e1e1e" stroke-width="2" fill="none"></path></g><g transform="translate(908.3269852032313 78.1204068658669) rotate(0 26.419967651367188 12.5)"><text x="26.419967651367188" y="0" font-family="Virgil, Segoe UI Emoji" font-size="20px" fill="#1e1e1e" text-anchor="middle" style="white-space: pre;" direction="ltr" dominant-baseline="text-before-edge">m-ebs</text></g><g stroke-linecap="round" transform="translate(876.3953223411693 126.61985778808591) rotate(0 59.1939697265625 28.167648315429688)"><path d="M14.08 0 C34.07 0.03, 50.24 0.78, 104.3 0 C110.37 0.54, 121.93 7.54, 118.39 14.08 C120.38 26.81, 115.44 30.85, 118.39 42.25 C118.67 55.06, 115.77 58.56, 104.3 56.34 C80.02 59.99, 60.33 57.19, 14.08 56.34 C7.7 55.73, -0.2 48.72, 0 42.25 C0.95 35.84, -0.1 20.1, 0 14.08 C-0.32 7.52, 3.81 -0.09, 14.08 0" stroke="none" stroke-width="0" fill="#b2f2bb"></path><path d="M14.08 0 C37.53 2.02, 66.19 1.76, 104.3 0 M14.08 0 C36.4 0.04, 57.87 1.41, 104.3 0 M104.3 0 C114.12 -0.48, 119.68 4.54, 118.39 14.08 M104.3 0 C112.57 -1.87, 119.67 3.11, 118.39 14.08 M118.39 14.08 C119.58 22.3, 119.07 26.98, 118.39 42.25 M118.39 14.08 C118.29 21.15, 118.86 25.98, 118.39 42.25 M118.39 42.25 C120.08 51.39, 112.52 57.17, 104.3 56.34 M118.39 42.25 C118.72 50.57, 112.13 55.87, 104.3 56.34 M104.3 56.34 C78.85 54.39, 51.61 57.98, 14.08 56.34 M104.3 56.34 C77.97 57.57, 52.06 56.5, 14.08 56.34 M14.08 56.34 C6.35 57.18, 0.31 53.45, 0 42.25 M14.08 56.34 C4.64 57.79, 0.09 49.43, 0 42.25 M0 42.25 C1.75 35.29, 0.32 25.75, 0 14.08 M0 42.25 C0.22 30.54, -0.91 19.33, 0 14.08 M0 14.08 C0.99 5.03, 3.35 1.29, 14.08 0 M0 14.08 C-0.27 6.76, 5.45 -1.61, 14.08 0" stroke="#1e1e1e" stroke-width="2" fill="none"></path></g><g transform="translate(917.2093100731029 142.2875061035156) rotate(0 18.379981994628906 12.5)"><text x="18.379981994628906" y="0" font-family="Virgil, Segoe UI Emoji" font-size="20px" fill="#1e1e1e" text-anchor="middle" style="white-space: pre;" direction="ltr" dominant-baseline="text-before-edge">m-v1</text></g><g stroke-linecap="round" transform="translate(876.0868506614818 199.18858123224422) rotate(0 59.1939697265625 28.167648315429688)"><path d="M14.08 0 C46.39 0.78, 84.92 -1.48, 104.3 0 C113.51 -1.28, 118.37 2.3, 118.39 14.08 C118.64 18.82, 118.6 32.22, 118.39 42.25 C121.65 48.19, 115.8 57.69, 104.3 56.34 C74.27 56.66, 38.45 59.55, 14.08 56.34 C3.04 57.16, 2.45 50.74, 0 42.25 C-0.86 36.63, -1.62 25.31, 0 14.08 C2.01 7.25, 3.76 -0.02, 14.08 0" stroke="none" stroke-width="0" fill="#a5d8ff"></path><path d="M14.08 0 C46.29 -1.65, 80.51 0.82, 104.3 0 M14.08 0 C37.07 0.51, 59.88 0.01, 104.3 0 M104.3 0 C112.75 -0.29, 117.53 4.25, 118.39 14.08 M104.3 0 C113.43 -1.47, 116.27 6.29, 118.39 14.08 M118.39 14.08 C116.71 22.78, 119.46 33.8, 118.39 42.25 M118.39 14.08 C118.78 20.1, 118.81 26.91, 118.39 42.25 M118.39 42.25 C119.36 52.92, 111.85 56.8, 104.3 56.34 M118.39 42.25 C117.17 52.2, 112.91 57.92, 104.3 56.34 M104.3 56.34 C69 55.19, 33.33 55.26, 14.08 56.34 M104.3 56.34 C79.93 58.03, 54.91 56.5, 14.08 56.34 M14.08 56.34 C4.65 56.31, -0.96 53.13, 0 42.25 M14.08 56.34 C6.04 56.88, -1.06 52.74, 0 42.25 M0 42.25 C-0.99 30.62, 0.17 21.55, 0 14.08 M0 42.25 C0.31 32.41, 1.02 23.39, 0 14.08 M0 14.08 C-1.8 5.65, 4.62 1, 14.08 0 M0 14.08 C1.42 4.28, 6.34 1.17, 14.08 0" stroke="#1e1e1e" stroke-width="2" fill="none"></path></g><g transform="translate(912.7308402244701 214.8562295476739) rotate(0 22.54998016357422 12.5)"><text x="22.54998016357422" y="0" font-family="Virgil, Segoe UI Emoji" font-size="20px" fill="#1e1e1e" text-anchor="middle" style="white-space: pre;" direction="ltr" dominant-baseline="text-before-edge">m-v0</text></g><g mask="url(#mask-GfXLK9MI9_F1Eb5b-ZsuA)" stroke-linecap="round"><g transform="translate(608.8273307638053 190.67046137379302) rotate(0 131.99037895218623 -15.44218340183349)"><path d="M0.98 0.74 C44.67 -4.38, 219.35 -26.54, 263.31 -31.76 M0.03 0.09 C44.02 -4.82, 221.61 -25.82, 265.66 -30.68" stroke="#1e1e1e" stroke-width="2" fill="none"></path></g><g transform="translate(608.8273307638053 190.67046137379302) rotate(0 131.99037895218623 -15.44218340183349)"><path d="M238.83 -17.27 C250.84 -23.94, 258.8 -26.87, 265.66 -30.68 M238.83 -17.27 C247.72 -21.94, 256.25 -25.94, 265.66 -30.68" stroke="#1e1e1e" stroke-width="2" fill="none"></path></g><g transform="translate(608.8273307638053 190.67046137379302) rotate(0 131.99037895218623 -15.44218340183349)"><path d="M236.49 -37.66 C249.26 -36.25, 258.16 -31.08, 265.66 -30.68 M236.49 -37.66 C246.22 -35.66, 255.51 -33.01, 265.66 -30.68" stroke="#1e1e1e" stroke-width="2" fill="none"></path></g></g><mask id="mask-GfXLK9MI9_F1Eb5b-ZsuA"><rect x="0" y="0" fill="#fff" width="972.8080886681778" height="321.55482817745997"></rect><rect x="726.7077167350344" y="162.72827797195953" fill="#000" width="28.219985961914062" height="25" opacity="1"></rect></mask><g transform="translate(726.7077167350345 162.72827797195953) rotate(0 14.96875509755688 12.434570319578086)"><text x="14.109992980957031" y="0" font-family="Virgil, Segoe UI Emoji" font-size="20px" fill="#1e1e1e" text-anchor="middle" style="white-space: pre;" direction="ltr" dominant-baseline="text-before-edge">v=1</text></g><g mask="url(#mask-amiMuOPDbNB9omBO6cF-U)" stroke-linecap="round"><g transform="translate(602.9208697294221 272.8046274444564) rotate(0 134.32785034179688 -14.630538940429688)"><path d="M1.12 0.46 C45.94 -4.73, 223.69 -25.47, 268.14 -30.22 M0.25 -0.34 C44.94 -5.5, 221.92 -24.28, 266.93 -29.19" stroke="#1e1e1e" stroke-width="2" fill="none"></path></g><g transform="translate(602.9208697294221 272.8046274444564) rotate(0 134.32785034179688 -14.630538940429688)"><path d="M239.99 -15.97 C246.97 -20.17, 250.92 -23.76, 266.93 -29.19 M239.99 -15.97 C249.88 -21.94, 261.1 -25.35, 266.93 -29.19" stroke="#1e1e1e" stroke-width="2" fill="none"></path></g><g transform="translate(602.9208697294221 272.8046274444564) rotate(0 134.32785034179688 -14.630538940429688)"><path d="M237.8 -36.37 C245.45 -35.82, 249.91 -34.62, 266.93 -29.19 M237.8 -36.37 C248.6 -34.17, 260.7 -29.43, 266.93 -29.19" stroke="#1e1e1e" stroke-width="2" fill="none"></path></g></g><mask id="mask-amiMuOPDbNB9omBO6cF-U"><rect x="0" y="0" fill="#fff" width="971.5765704130158" height="402.0657053253158"></rect><rect x="718.9687289213166" y="245.67408850402677" fill="#000" width="36.55998229980469" height="25" opacity="1"></rect></mask><g transform="translate(718.9687289213166 245.67408850402677) rotate(0 18.149990298296302 12.250867814570682)"><text x="18.279991149902344" y="0" font-family="Virgil, Segoe UI Emoji" font-size="20px" fill="#1e1e1e" text-anchor="middle" style="white-space: pre;" direction="ltr" dominant-baseline="text-before-edge">v=0</text></g><g mask="url(#mask-6cwzqpIGdLx9uDsvr7cPM)" stroke-linecap="round"><g transform="translate(599.2619952177033 106.32025244445643) rotate(0 135.32064819335938 22.8466796875)"><path d="M1.14 0.18 C46.05 7.91, 225.28 38.24, 270.18 45.79 M0.28 -0.77 C44.93 7.22, 224.09 39.47, 269 47.39" stroke="#1e1e1e" stroke-width="2" fill="none"></path></g><g transform="translate(599.2619952177033 106.32025244445643) rotate(0 135.32064819335938 22.8466796875)"><path d="M239.44 52.54 C250.42 49.64, 260.92 48.4, 269 47.39 M239.44 52.54 C247.32 50.62, 255.81 50.04, 269 47.39" stroke="#1e1e1e" stroke-width="2" fill="none"></path></g><g transform="translate(599.2619952177033 106.32025244445643) rotate(0 135.32064819335938 22.8466796875)"><path d="M243.05 32.33 C252.63 36.75, 261.84 42.78, 269 47.39 M243.05 32.33 C249.72 36.15, 257.18 41.32, 269 47.39" stroke="#1e1e1e" stroke-width="2" fill="none"></path></g></g><mask id="mask-6cwzqpIGdLx9uDsvr7cPM"><rect x="0" y="0" fill="#fff" width="969.9032916044221" height="252.01361181945643"></rect><rect x="720.4726504301057" y="116.66693213195646" fill="#000" width="28.219985961914062" height="25" opacity="1"></rect></mask><g transform="translate(720.4726504301057 116.66693213195646) rotate(0 14.021269480730439 12.963283493379123)"><text x="14.109992980957031" y="0" font-family="Virgil, Segoe UI Emoji" font-size="20px" fill="#1e1e1e" text-anchor="middle" style="white-space: pre;" direction="ltr" dominant-baseline="text-before-edge">v=1</text></g></svg>