<svg version="1.1" xmlns="http://www.w3.org/2000/svg" viewBox="0 0 1029.0968674053797 742.458175989212" width="1029.0968674053797" height="742.458175989212">
  <!-- svg-source:excalidraw -->
  
  <defs>
    <style class="style-fonts">
      @font-face {
        font-family: "Virgil";
        src: url("https://file%2B.vscode-resource.vscode-cdn.net/Users/jerry/.vscode/extensions/pomdtr.excalidraw-editor-3.7.4/public//dist/excalidraw-assets/Virgil.woff2");
      }
      @font-face {
        font-family: "Cascadia";
        src: url("https://file%2B.vscode-resource.vscode-cdn.net/Users/jerry/.vscode/extensions/pomdtr.excalidraw-editor-3.7.4/public//dist/excalidraw-assets/Cascadia.woff2");
      }
      @font-face {
        font-family: "Assistant";
        src: url("https://file%2B.vscode-resource.vscode-cdn.net/Users/jerry/.vscode/extensions/pomdtr.excalidraw-editor-3.7.4/public//dist/excalidraw-assets/Assistant-Regular.woff2");
      }
    </style>
    
  </defs>
  <rect x="0" y="0" width="1029.0968674053797" height="742.458175989212" fill="#ffffff"></rect><g stroke-linecap="round" transform="translate(163.18224861070053 10) rotate(0 229.86102294921872 157.46280670166016)"><path d="M32 0 C170.9 1.07, 310.97 0.22, 427.72 0 M32 0 C139.67 1.88, 246.71 1.46, 427.72 0 M427.72 0 C449.23 1.69, 459.96 9.74, 459.72 32 M427.72 0 C447.18 2.25, 461.78 12.83, 459.72 32 M459.72 32 C460.29 95.19, 458.61 155.92, 459.72 282.93 M459.72 32 C460.02 128.37, 459.57 223.19, 459.72 282.93 M459.72 282.93 C460.52 305.55, 450.25 314.17, 427.72 314.93 M459.72 282.93 C459.37 305.21, 447.62 315.71, 427.72 314.93 M427.72 314.93 C339.41 315.92, 251.65 317.49, 32 314.93 M427.72 314.93 C334.88 315.56, 241.45 315.72, 32 314.93 M32 314.93 C11.58 315.53, 1.97 304.19, 0 282.93 M32 314.93 C12.28 315.2, 1.21 305.52, 0 282.93 M0 282.93 C1.37 198.71, -0.24 113.84, 0 32 M0 282.93 C0.58 183.8, 0.31 85.53, 0 32 M0 32 C-1.72 12.17, 12.58 1.25, 32 0 M0 32 C2.1 9.66, 9.89 1.77, 32 0" stroke="#1e1e1e" stroke-width="2" fill="none"></path></g><g stroke-linecap="round" transform="translate(479.4985742816959 79.1101662104821) rotate(0 58.464447021484375 25.209442138671875)"><path d="M12.6 0 C43.68 -2.17, 68.28 -0.46, 104.32 0 C114.19 -0.77, 117.72 3.2, 116.93 12.6 C119.21 17.58, 117.62 24.03, 116.93 37.81 C116.39 47.37, 112.35 47.01, 104.32 50.42 C75.16 48.38, 47.04 51.8, 12.6 50.42 C6.81 47.7, -3.08 45.84, 0 37.81 C1.47 28.98, 0.6 23.76, 0 12.6 C1.87 5.88, 1.72 2.26, 12.6 0" stroke="none" stroke-width="0" fill="#b2f2bb"></path><path d="M12.6 0 C47.32 -1.6, 79.46 0.55, 104.32 0 M12.6 0 C49.68 -0.92, 86.36 -0.8, 104.32 0 M104.32 0 C113.15 -0.64, 117.18 3.15, 116.93 12.6 M104.32 0 C112.19 -1.94, 117.51 5.46, 116.93 12.6 M116.93 12.6 C117.9 22.51, 115.35 30.35, 116.93 37.81 M116.93 12.6 C117.52 17.27, 117.06 23.55, 116.93 37.81 M116.93 37.81 C116.39 47.66, 112.8 51.57, 104.32 50.42 M116.93 37.81 C116.37 45.41, 112.55 48.59, 104.32 50.42 M104.32 50.42 C74.55 50.37, 43.1 51.83, 12.6 50.42 M104.32 50.42 C83.37 51.17, 63.23 49.58, 12.6 50.42 M12.6 50.42 C4.12 50.21, 0.88 46.54, 0 37.81 M12.6 50.42 C3.6 48.23, -0.6 44.6, 0 37.81 M0 37.81 C-0.92 29.4, -1.22 22.69, 0 12.6 M0 37.81 C-0.21 30.86, -0.33 25.64, 0 12.6 M0 12.6 C-0.42 5.67, 5.62 -0.26, 12.6 0 M0 12.6 C-0.25 3.67, 1.91 1.68, 12.6 0" stroke="#1e1e1e" stroke-width="2" fill="none"></path></g><g transform="translate(513.8830423603092 91.81960834915398) rotate(0 24.079978942871094 12.5)"><text x="24.079978942871094" y="0" font-family="Virgil, Segoe UI Emoji" font-size="20px" fill="#1e1e1e" text-anchor="middle" style="white-space: pre;" direction="ltr" dominant-baseline="text-before-edge">node1</text></g><g stroke-linecap="round" transform="translate(480.45896246528963 162.54101337845086) rotate(0 58.464447021484375 25.209442138671875)"><path d="M12.6 0 C44.67 -3.67, 71.51 1.81, 104.32 0 C115.66 -0.19, 117.44 0.74, 116.93 12.6 C114.41 20, 114.93 27.77, 116.93 37.81 C118.48 44.93, 109.34 47.79, 104.32 50.42 C76.08 49.33, 52.01 52.48, 12.6 50.42 C6.54 48.95, -2.68 47.84, 0 37.81 C-0.07 34.04, -1.37 21.67, 0 12.6 C1.13 2.68, 3.68 -0.76, 12.6 0" stroke="none" stroke-width="0" fill="#b2f2bb"></path><path d="M12.6 0 C33.01 1.23, 56.6 -1.85, 104.32 0 M12.6 0 C41.41 -1.67, 72.37 -0.47, 104.32 0 M104.32 0 C112.03 0.68, 118.29 4.47, 116.93 12.6 M104.32 0 C113.93 0.3, 119.13 5.75, 116.93 12.6 M116.93 12.6 C115.18 21.85, 115.4 30.26, 116.93 37.81 M116.93 12.6 C117.59 18.08, 116.21 23.43, 116.93 37.81 M116.93 37.81 C116.92 47.1, 114.1 49.97, 104.32 50.42 M116.93 37.81 C115.98 44.46, 111.83 48.62, 104.32 50.42 M104.32 50.42 C69.24 50.73, 32.55 50.6, 12.6 50.42 M104.32 50.42 C73.4 50.54, 41.22 48.78, 12.6 50.42 M12.6 50.42 C5.08 50.35, 1.48 46.61, 0 37.81 M12.6 50.42 C2.56 49.45, 0.39 45.04, 0 37.81 M0 37.81 C1.58 26.49, 1 18.93, 0 12.6 M0 37.81 C-0.83 29.1, 0.31 20.43, 0 12.6 M0 12.6 C-1.75 5.86, 2.79 1.85, 12.6 0 M0 12.6 C-2.19 5.63, 3.56 -1.88, 12.6 0" stroke="#1e1e1e" stroke-width="2" fill="none"></path></g><g transform="translate(510.43343451118807 175.25045551712273) rotate(0 28.489974975585938 12.5)"><text x="28.489974975585938" y="0" font-family="Virgil, Segoe UI Emoji" font-size="20px" fill="#1e1e1e" text-anchor="middle" style="white-space: pre;" direction="ltr" dominant-baseline="text-before-edge">node2</text></g><g stroke-linecap="round" transform="translate(479.9018578407733 243.35091938431023) rotate(0 58.464447021484375 25.209442138671875)"><path d="M12.6 0 C42.64 1.16, 67.14 -2.13, 104.32 0 C110.46 -1.81, 119.92 1.6, 116.93 12.6 C117.78 18.11, 115.39 26.48, 116.93 37.81 C116.01 44.98, 111.4 53.53, 104.32 50.42 C84.31 50.15, 55.06 48.61, 12.6 50.42 C6.74 49.54, -1.27 45.07, 0 37.81 C-1.1 35.57, -0.92 25.92, 0 12.6 C3.37 4.34, 7.16 -1.85, 12.6 0" stroke="none" stroke-width="0" fill="#b2f2bb"></path><path d="M12.6 0 C36.62 1.19, 57.66 -1.4, 104.32 0 M12.6 0 C45.87 -0.71, 80.18 0.37, 104.32 0 M104.32 0 C112.78 1.35, 118.89 6.19, 116.93 12.6 M104.32 0 C112.26 1.99, 118.04 2.1, 116.93 12.6 M116.93 12.6 C115.23 17.64, 115.18 24.58, 116.93 37.81 M116.93 12.6 C117 21.2, 116.49 31.11, 116.93 37.81 M116.93 37.81 C118.45 47.08, 114.07 51.73, 104.32 50.42 M116.93 37.81 C115.79 48.38, 111.47 50.51, 104.32 50.42 M104.32 50.42 C82.65 51.62, 63.13 52.27, 12.6 50.42 M104.32 50.42 C79.23 51.22, 53.96 51.62, 12.6 50.42 M12.6 50.42 C4.66 51.38, -0.62 47.73, 0 37.81 M12.6 50.42 C2.95 50.38, -0.13 45.88, 0 37.81 M0 37.81 C-0.62 28.56, -0.51 23.38, 0 12.6 M0 37.81 C-0.76 31.95, -0.04 25.28, 0 12.6 M0 12.6 C0.75 3.05, 5.89 -0.15, 12.6 0 M0 12.6 C-0.05 1.92, 5.39 0.47, 12.6 0" stroke="#1e1e1e" stroke-width="2" fill="none"></path></g><g transform="translate(510.1863274452655 256.06036152298213) rotate(0 28.179977416992188 12.5)"><text x="28.179977416992188" y="0" font-family="Virgil, Segoe UI Emoji" font-size="20px" fill="#1e1e1e" text-anchor="middle" style="white-space: pre;" direction="ltr" dominant-baseline="text-before-edge">node3</text></g><g stroke-linecap="round" transform="translate(356.09754278755526 75.18766560013054) rotate(0 32.3026123046875 50.57933044433594)"><path d="M16.15 0 C25.82 1.75, 30.43 -1.36, 48.45 0 C62.56 -0.53, 65.58 7.8, 64.61 16.15 C66.54 33.94, 65.25 53.22, 64.61 85.01 C66 95.96, 57.08 102.22, 48.45 101.16 C44.36 98.18, 33.9 101.07, 16.15 101.16 C7.8 100.05, 1.32 96.23, 0 85.01 C-3.46 63.74, 2.2 49.06, 0 16.15 C1.19 6.31, 7.55 3.12, 16.15 0" stroke="none" stroke-width="0" fill="#ffec99"></path><path d="M16.15 0 C28.6 -0.75, 40.43 1.37, 48.45 0 M16.15 0 C26.38 0.3, 37.27 0.17, 48.45 0 M48.45 0 C58.14 0.28, 62.85 4.96, 64.61 16.15 M48.45 0 C59.77 -0.76, 66.46 5.44, 64.61 16.15 M64.61 16.15 C63.59 33.34, 63.33 47.17, 64.61 85.01 M64.61 16.15 C65.18 36.2, 64.02 55.13, 64.61 85.01 M64.61 85.01 C64.36 96.93, 59.93 101.73, 48.45 101.16 M64.61 85.01 C65.02 95.1, 61.3 100.42, 48.45 101.16 M48.45 101.16 C35.25 102.49, 26.2 103.43, 16.15 101.16 M48.45 101.16 C42.24 100.68, 33.83 101.4, 16.15 101.16 M16.15 101.16 C5.56 101.17, 1.52 93.91, 0 85.01 M16.15 101.16 C5.61 102.54, -1.63 98.04, 0 85.01 M0 85.01 C1.01 64.29, 1.2 38.91, 0 16.15 M0 85.01 C0.59 62.73, 1.25 40.91, 0 16.15 M0 16.15 C0.94 5.18, 5.24 -1.44, 16.15 0 M0 16.15 C-1.12 4.22, 5.56 -1.41, 16.15 0" stroke="#1e1e1e" stroke-width="2" fill="none"></path></g><g transform="translate(369.06016638374666 113.26699604446648) rotate(0 19.339988708496094 12.5)"><text x="19.339988708496094" y="0" font-family="Virgil, Segoe UI Emoji" font-size="20px" fill="#1e1e1e" text-anchor="middle" style="white-space: pre;" direction="ltr" dominant-baseline="text-before-edge">SLB</text></g><g stroke-linecap="round" transform="translate(355.064034486774 193.47221149856804) rotate(0 32.3026123046875 50.57933044433594)"><path d="M16.15 0 C25.78 0.93, 33.61 -2.31, 48.45 0 C57.28 -3.16, 63.9 2.96, 64.61 16.15 C63.52 37.32, 64.64 63.23, 64.61 85.01 C65.25 97.14, 56.89 98.03, 48.45 101.16 C42.56 101.9, 35.62 98.23, 16.15 101.16 C7.96 103.43, -1.33 98.59, 0 85.01 C0.41 67.7, -0.57 47.46, 0 16.15 C2.27 7.41, 2.83 2.6, 16.15 0" stroke="none" stroke-width="0" fill="#ffec99"></path><path d="M16.15 0 C24.9 -0.56, 35.1 -1.53, 48.45 0 M16.15 0 C26.5 0.96, 38.82 0.18, 48.45 0 M48.45 0 C59.6 -0.41, 65.22 7.26, 64.61 16.15 M48.45 0 C60.91 -1.22, 64.62 7.11, 64.61 16.15 M64.61 16.15 C66.2 37.65, 63.3 60.89, 64.61 85.01 M64.61 16.15 C64.12 31.1, 63.84 45.88, 64.61 85.01 M64.61 85.01 C63.76 96.97, 60.88 100.55, 48.45 101.16 M64.61 85.01 C63.18 95.27, 60.08 102.91, 48.45 101.16 M48.45 101.16 C38 100.59, 25.92 101.66, 16.15 101.16 M48.45 101.16 C37.87 101.08, 26.35 101.38, 16.15 101.16 M16.15 101.16 C4.69 100.87, -0.27 96.08, 0 85.01 M16.15 101.16 C4.19 100.34, 0.76 95.09, 0 85.01 M0 85.01 C2.38 62.11, 0.56 40.18, 0 16.15 M0 85.01 C0.7 61.11, 0.67 38.22, 0 16.15 M0 16.15 C1.05 6.95, 4 -0.7, 16.15 0 M0 16.15 C-1.36 7.26, 4.02 0.16, 16.15 0" stroke="#1e1e1e" stroke-width="2" fill="none"></path></g><g transform="translate(368.0266580829654 231.55154194290398) rotate(0 19.339988708496094 12.5)"><text x="19.339988708496094" y="0" font-family="Virgil, Segoe UI Emoji" font-size="20px" fill="#1e1e1e" text-anchor="middle" style="white-space: pre;" direction="ltr" dominant-baseline="text-before-edge">SLB</text></g><g stroke-linecap="round"><g transform="translate(421.28519953099726 116.58183276642959) rotate(0 27.638702392578125 -6.54937744140625)"><path d="M-0.47 -0.96 C8.91 -3.24, 46.82 -12.12, 56.25 -14.15 M1.49 1.15 C10.79 -0.98, 46.76 -10.99, 55.81 -13.17" stroke="#1e1e1e" stroke-width="2" fill="none"></path></g><g transform="translate(421.28519953099726 116.58183276642959) rotate(0 27.638702392578125 -6.54937744140625)"><path d="M32.44 2.98 C37.85 -0.12, 44.65 -5.15, 55.81 -13.17 M32.44 2.98 C39.42 -1.32, 45.17 -5.84, 55.81 -13.17" stroke="#1e1e1e" stroke-width="2" fill="none"></path></g><g transform="translate(421.28519953099726 116.58183276642959) rotate(0 27.638702392578125 -6.54937744140625)"><path d="M27.53 -15.82 C34.33 -13.3, 42.59 -12.74, 55.81 -13.17 M27.53 -15.82 C36.11 -14.62, 43.31 -13.65, 55.81 -13.17" stroke="#1e1e1e" stroke-width="2" fill="none"></path></g></g><mask></mask><g stroke-linecap="round"><g transform="translate(426.0516179880285 136.12596118439834) rotate(0 25.277801513671875 20.517303466796875)"><path d="M0.94 1.12 C9.41 7.93, 41.87 34.93, 50.29 41.74 M-0.02 0.66 C8.3 7.06, 40.66 33.41, 49.2 39.98" stroke="#1e1e1e" stroke-width="2" fill="none"></path></g><g transform="translate(426.0516179880285 136.12596118439834) rotate(0 25.277801513671875 20.517303466796875)"><path d="M20.75 30.49 C30.08 32.29, 36.78 36.75, 49.2 39.98 M20.75 30.49 C31.61 33.99, 43.12 38.82, 49.2 39.98" stroke="#1e1e1e" stroke-width="2" fill="none"></path></g><g transform="translate(426.0516179880285 136.12596118439834) rotate(0 25.277801513671875 20.517303466796875)"><path d="M33.51 14.42 C39.63 20.5, 43.02 29.14, 49.2 39.98 M33.51 14.42 C39.43 23.92, 46.12 34.8, 49.2 39.98" stroke="#1e1e1e" stroke-width="2" fill="none"></path></g></g><mask></mask><g stroke-linecap="round"><g transform="translate(427.40965021459107 264.83717334260155) rotate(0 21.912945490476176 1.0886281710435242)"><path d="M-0.53 0.14 C6.78 0.49, 36.95 1.54, 44.33 1.79 M0.19 -0.26 C7.44 0.18, 36.97 1.91, 44.16 2.3" stroke="#1e1e1e" stroke-width="2" fill="none"></path></g><g transform="translate(427.40965021459107 264.83717334260155) rotate(0 21.912945490476176 1.0886281710435242)"><path d="M23.15 8.62 C31.46 7.22, 38.54 3.69, 44.16 2.3 M23.15 8.62 C27.55 7.56, 31.58 5.91, 44.16 2.3" stroke="#1e1e1e" stroke-width="2" fill="none"></path></g><g transform="translate(427.40965021459107 264.83717334260155) rotate(0 21.912945490476176 1.0886281710435242)"><path d="M23.99 -6.36 C31.94 -2.04, 38.7 0.17, 44.16 2.3 M23.99 -6.36 C28.23 -4.27, 32.08 -2.76, 44.16 2.3" stroke="#1e1e1e" stroke-width="2" fill="none"></path></g></g><mask></mask><g stroke-linecap="round" transform="translate(202.2348275546978 73.8603363941103) rotate(0 45.754974365234375 42.5)"><path d="M21.25 0 C39.94 0.73, 52.31 3.59, 70.26 0 C84.67 -2.18, 92.42 9.09, 91.51 21.25 C94.46 29.82, 92.66 40.9, 91.51 63.75 C92.83 78.32, 85.28 84.02, 70.26 85 C62.94 82.84, 49.7 82.95, 21.25 85 C5.02 88.13, 2.71 77.57, 0 63.75 C-0.66 48.2, 0.11 28.36, 0 21.25 C-1.24 8.98, 8.01 0.86, 21.25 0" stroke="none" stroke-width="0" fill="#ffc9c9"></path><path d="M21.25 0 C35.18 0.09, 47.19 -1.39, 70.26 0 M21.25 0 C35.66 -0.2, 51.78 1.25, 70.26 0 M70.26 0 C83.28 -1.36, 92.74 7.36, 91.51 21.25 M70.26 0 C84.69 2.18, 92.56 6.96, 91.51 21.25 M91.51 21.25 C89.74 33.25, 92.72 43.94, 91.51 63.75 M91.51 21.25 C91.23 34.33, 92.44 45.95, 91.51 63.75 M91.51 63.75 C90.5 77.55, 82.75 83.48, 70.26 85 M91.51 63.75 C91.23 79.72, 86.09 85.58, 70.26 85 M70.26 85 C53.47 85.74, 38.56 83.41, 21.25 85 M70.26 85 C57.23 85.51, 43.42 84.49, 21.25 85 M21.25 85 C5.17 85.72, 1.68 77.71, 0 63.75 M21.25 85 C9.06 84.93, 1.84 80.05, 0 63.75 M0 63.75 C1.4 49.35, -1.44 37.96, 0 21.25 M0 63.75 C-0.66 54.87, 0.17 46.08, 0 21.25 M0 21.25 C1.06 6.74, 7.76 -0.66, 21.25 0 M0 21.25 C1.53 4.92, 6.84 -0.43, 21.25 0" stroke="#1e1e1e" stroke-width="2" fill="none"></path></g><g transform="translate(219.31982663917046 103.8603363941103) rotate(0 28.66997528076172 12.5)"><text x="28.66997528076172" y="0" font-family="Virgil, Segoe UI Emoji" font-size="20px" fill="#1e1e1e" text-anchor="middle" style="white-space: pre;" direction="ltr" dominant-baseline="text-before-edge">m1.com</text></g><g stroke-linecap="round" transform="translate(197.9058480625103 189.814211121807) rotate(0 45.754974365234375 42.5)"><path d="M21.25 0 C42.93 2.78, 61.56 1.19, 70.26 0 C81.34 0.79, 88.95 3.79, 91.51 21.25 C91.15 29.29, 93.29 39.05, 91.51 63.75 C91.58 78.96, 86.21 83.74, 70.26 85 C54.46 88.04, 38.09 86.28, 21.25 85 C9.99 82.09, 0.34 78.41, 0 63.75 C2.52 51.69, -0.78 41.43, 0 21.25 C2.79 5.85, 8.18 -0.87, 21.25 0" stroke="none" stroke-width="0" fill="#ffc9c9"></path><path d="M21.25 0 C30.91 -0.94, 44.41 -1.04, 70.26 0 M21.25 0 C39.92 -0.22, 58.14 -0.55, 70.26 0 M70.26 0 C82.51 -0.87, 90.34 6.54, 91.51 21.25 M70.26 0 C82.5 0.93, 91.99 6.3, 91.51 21.25 M91.51 21.25 C90.97 36.13, 91.34 53.38, 91.51 63.75 M91.51 21.25 C90.72 36.1, 91.08 51.97, 91.51 63.75 M91.51 63.75 C92.67 76.39, 83.68 84.96, 70.26 85 M91.51 63.75 C92.87 78.06, 84.67 83.09, 70.26 85 M70.26 85 C54.68 84.01, 41.68 86.79, 21.25 85 M70.26 85 C50.45 84.91, 31.44 85.69, 21.25 85 M21.25 85 C8.53 84.74, 0.51 78.5, 0 63.75 M21.25 85 C9.16 82.73, 2.2 76.5, 0 63.75 M0 63.75 C0.08 47.58, 0.29 32.01, 0 21.25 M0 63.75 C0.6 48.86, 0.12 32.36, 0 21.25 M0 21.25 C0.57 8.42, 8.93 1.33, 21.25 0 M0 21.25 C1.93 8.74, 9.21 -0.15, 21.25 0" stroke="#1e1e1e" stroke-width="2" fill="none"></path></g><g transform="translate(210.5808511142681 219.814211121807) rotate(0 33.07997131347656 12.5)"><text x="33.07997131347656" y="0" font-family="Virgil, Segoe UI Emoji" font-size="20px" fill="#1e1e1e" text-anchor="middle" style="white-space: pre;" direction="ltr" dominant-baseline="text-before-edge">m2.com</text></g><g stroke-linecap="round"><g transform="translate(295.87539151954155 113.25016575878706) rotate(0 28.35784912109375 1.3363475986435844)"><path d="M0.7 -0.74 C10.08 -0.33, 47.9 1.03, 57.29 1.54 M-0.39 1.48 C8.79 2.09, 47.17 2.15, 56.64 2.48" stroke="#1e1e1e" stroke-width="2" fill="none"></path></g><g transform="translate(295.87539151954155 113.25016575878706) rotate(0 28.35784912109375 1.3363475986435844)"><path d="M29.8 11.74 C38.99 8.97, 48.68 5.01, 56.64 2.48 M29.8 11.74 C37.74 9.23, 44.41 7.06, 56.64 2.48" stroke="#1e1e1e" stroke-width="2" fill="none"></path></g><g transform="translate(295.87539151954155 113.25016575878706) rotate(0 28.35784912109375 1.3363475986435844)"><path d="M30.13 -7.67 C39.03 -2.96, 48.6 0.56, 56.64 2.48 M30.13 -7.67 C37.91 -4.92, 44.5 -1.82, 56.64 2.48" stroke="#1e1e1e" stroke-width="2" fill="none"></path></g></g><mask></mask><g stroke-linecap="round"><g transform="translate(297.27797941016655 132.17940394917807) rotate(0 26.83935546875 49.68590081639749)"><path d="M0.76 -1.02 C9.66 15.56, 44.75 82.84, 53.65 99.56 M-0.31 1.07 C8.42 17.24, 43.7 80.95, 52.68 97.54" stroke="#1e1e1e" stroke-width="2" fill="none"></path></g><g transform="translate(297.27797941016655 132.17940394917807) rotate(0 26.83935546875 49.68590081639749)"><path d="M30.13 77.75 C35.66 83.88, 44.87 91, 52.68 97.54 M30.13 77.75 C37.06 84.2, 42.69 88.79, 52.68 97.54" stroke="#1e1e1e" stroke-width="2" fill="none"></path></g><g transform="translate(297.27797941016655 132.17940394917807) rotate(0 26.83935546875 49.68590081639749)"><path d="M48.13 67.89 C47.92 77.27, 51.38 87.55, 52.68 97.54 M48.13 67.89 C49.64 77.2, 49.91 84.72, 52.68 97.54" stroke="#1e1e1e" stroke-width="2" fill="none"></path></g></g><mask></mask><g stroke-linecap="round"><g transform="translate(294.50551847266655 236.19998382688513) rotate(0 27.481201171875 0.811248779296875)"><path d="M0.97 0.08 C10.11 0.22, 46.97 1.28, 55.86 1.66 M0.02 -0.92 C8.99 -0.65, 46.52 3, 55.38 3.21" stroke="#1e1e1e" stroke-width="2" fill="none"></path></g><g transform="translate(294.50551847266655 236.19998382688513) rotate(0 27.481201171875 0.811248779296875)"><path d="M28.98 10.89 C39.21 9.22, 49.28 3.68, 55.38 3.21 M28.98 10.89 C38.43 7.38, 48.23 5.87, 55.38 3.21" stroke="#1e1e1e" stroke-width="2" fill="none"></path></g><g transform="translate(294.50551847266655 236.19998382688513) rotate(0 27.481201171875 0.811248779296875)"><path d="M30.22 -7.88 C40.1 -2.32, 49.69 -0.65, 55.38 3.21 M30.22 -7.88 C39.21 -4.65, 48.57 0.58, 55.38 3.21" stroke="#1e1e1e" stroke-width="2" fill="none"></path></g></g><mask></mask><g stroke-linecap="round" transform="translate(10 98.23528673992584) rotate(0 50.6046142578125 17.5)"><path d="M8.75 0 C24.58 0.75, 43.88 -1.07, 92.46 0 C96.25 -1.25, 99.35 0.84, 101.21 8.75 C99.42 15.32, 98.55 25.07, 101.21 26.25 C103.17 35.16, 96.1 32.55, 92.46 35 C64.63 39.94, 34.83 37.49, 8.75 35 C3.81 34.06, -1.19 30.73, 0 26.25 C2.45 22.93, -2.53 15.34, 0 8.75 C-1.94 -0.05, 1.75 -1.81, 8.75 0" stroke="none" stroke-width="0" fill="#b2f2bb"></path><path d="M8.75 0 C35.58 0.2, 57.82 -1.43, 92.46 0 M8.75 0 C32.91 -0.89, 55.81 -0.69, 92.46 0 M92.46 0 C96.74 -0.48, 99.82 3.47, 101.21 8.75 M92.46 0 C96.89 1.8, 102.93 4.06, 101.21 8.75 M101.21 8.75 C100.39 13.69, 100.99 19.77, 101.21 26.25 M101.21 8.75 C100.61 15.16, 102.19 20.5, 101.21 26.25 M101.21 26.25 C102.25 31.06, 99.54 34.93, 92.46 35 M101.21 26.25 C99.01 32.62, 96.24 34.11, 92.46 35 M92.46 35 C65.81 34.16, 39.56 35.01, 8.75 35 M92.46 35 C71.69 34.27, 51 33.91, 8.75 35 M8.75 35 C4.07 36.22, 0.43 32.97, 0 26.25 M8.75 35 C1.58 34.22, -0.83 33.5, 0 26.25 M0 26.25 C0.87 20.93, 1.3 12.88, 0 8.75 M0 26.25 C0.68 20.5, 0.05 15.57, 0 8.75 M0 8.75 C-0.38 1.53, 3.37 -1.85, 8.75 0 M0 8.75 C-2.11 2.71, 2.93 0.34, 8.75 0" stroke="#1e1e1e" stroke-width="2" fill="none"></path></g><g transform="translate(37.88462829589844 103.23528673992584) rotate(0 22.719985961914062 12.5)"><text x="22.719985961914062" y="0" font-family="Virgil, Segoe UI Emoji" font-size="20px" fill="#1e1e1e" text-anchor="middle" style="white-space: pre;" direction="ltr" dominant-baseline="text-before-edge">SDK1</text></g><g stroke-linecap="round" transform="translate(13.20989990234375 206.19952013836334) rotate(0 50.6046142578125 17.5)"><path d="M8.75 0 C34.52 3.09, 65.79 2.93, 92.46 0 C95.56 -2.42, 99.29 0.58, 101.21 8.75 C100.14 12.64, 100.61 18.3, 101.21 26.25 C101.33 28.96, 99.63 38.51, 92.46 35 C66.98 36.99, 37.54 39.79, 8.75 35 C4.33 31.98, -3.16 33.79, 0 26.25 C2.07 22.82, -0.95 14.18, 0 8.75 C3.59 3.85, 0.65 -3.34, 8.75 0" stroke="none" stroke-width="0" fill="#b2f2bb"></path><path d="M8.75 0 C34.58 0.44, 58.87 0.86, 92.46 0 M8.75 0 C39.01 0.47, 68.37 -0.54, 92.46 0 M92.46 0 C96.49 1.46, 102.27 1.63, 101.21 8.75 M92.46 0 C97.38 -0.57, 99.3 4.3, 101.21 8.75 M101.21 8.75 C102.08 15.49, 102.75 18.98, 101.21 26.25 M101.21 8.75 C100.74 13.12, 101.75 16.79, 101.21 26.25 M101.21 26.25 C102.55 32.54, 99.87 35.02, 92.46 35 M101.21 26.25 C102.5 32.33, 98.73 35.4, 92.46 35 M92.46 35 C59.17 34.03, 25.77 33.82, 8.75 35 M92.46 35 C69.88 35.91, 48.55 34.74, 8.75 35 M8.75 35 C1.9 34.65, 1.53 32.63, 0 26.25 M8.75 35 C1.17 36.87, -1.34 32.47, 0 26.25 M0 26.25 C0.57 22.41, 0.67 15.77, 0 8.75 M0 26.25 C-0.8 19.98, -0.35 12.6, 0 8.75 M0 8.75 C-0.48 0.96, 1.1 1.61, 8.75 0 M0 8.75 C-2.25 3.82, 1.23 -0.83, 8.75 0" stroke="#1e1e1e" stroke-width="2" fill="none"></path></g><g transform="translate(36.684532165527344 211.19952013836334) rotate(0 27.129981994628906 12.5)"><text x="27.129981994628906" y="0" font-family="Virgil, Segoe UI Emoji" font-size="20px" fill="#1e1e1e" text-anchor="middle" style="white-space: pre;" direction="ltr" dominant-baseline="text-before-edge">SDK2</text></g><g stroke-linecap="round"><g transform="translate(116.3946533203125 115.42290881023834) rotate(0 36.92045593261719 -0.1327757175473323)"><path d="M-0.47 -0.24 C11.54 -0.41, 60.66 -0.46, 72.97 -0.4 M1.48 -1.41 C13.78 -1.45, 63.4 1.17, 75.23 1.07" stroke="#1e1e1e" stroke-width="2" fill="none"></path></g><g transform="translate(116.3946533203125 115.42290881023834) rotate(0 36.92045593261719 -0.1327757175473323)"><path d="M46.78 10.58 C57.06 5.66, 67.97 2.82, 75.23 1.07 M46.78 10.58 C55.87 6.61, 65.89 4.86, 75.23 1.07" stroke="#1e1e1e" stroke-width="2" fill="none"></path></g><g transform="translate(116.3946533203125 115.42290881023834) rotate(0 36.92045593261719 -0.1327757175473323)"><path d="M47.32 -9.93 C57.51 -7.12, 68.21 -2.22, 75.23 1.07 M47.32 -9.93 C56.07 -7.1, 65.91 -2.05, 75.23 1.07" stroke="#1e1e1e" stroke-width="2" fill="none"></path></g></g><mask></mask><g stroke-linecap="round"><g transform="translate(120.74209594726562 226.45321276531647) rotate(0 35.456939697265625 0.7012939453125)"><path d="M-0.12 -0.63 C11.8 -0.38, 59.2 2.03, 70.84 2.31 M-1.64 1.66 C10.18 1.5, 57.57 0.58, 69.85 0.66" stroke="#1e1e1e" stroke-width="2" fill="none"></path></g><g transform="translate(120.74209594726562 226.45321276531647) rotate(0 35.456939697265625 0.7012939453125)"><path d="M41.75 11.15 C47.49 8.49, 56.9 4.12, 69.85 0.66 M41.75 11.15 C48.26 8.89, 57.69 5.63, 69.85 0.66" stroke="#1e1e1e" stroke-width="2" fill="none"></path></g><g transform="translate(120.74209594726562 226.45321276531647) rotate(0 35.456939697265625 0.7012939453125)"><path d="M41.58 -9.37 C47.5 -7.02, 56.96 -6.38, 69.85 0.66 M41.58 -9.37 C48.29 -6.11, 57.77 -3.85, 69.85 0.66" stroke="#1e1e1e" stroke-width="2" fill="none"></path></g></g><mask></mask><g stroke-linecap="round" transform="translate(850.397038303817 73.21156287172627) rotate(0 84.3499145507813 108.25335693359375)"><path d="M32 0 C56.96 1.15, 80.4 1.18, 136.7 0 M32 0 C53.86 -0.64, 74.82 -0.68, 136.7 0 M136.7 0 C159.31 -1.27, 167.95 9.56, 168.7 32 M136.7 0 C160.32 1.67, 170.75 9.11, 168.7 32 M168.7 32 C169.59 81.68, 166.57 131.71, 168.7 184.51 M168.7 32 C168.45 70.39, 168.51 108.52, 168.7 184.51 M168.7 184.51 C166.79 205.67, 159.42 216.97, 136.7 216.51 M168.7 184.51 C169.86 207.6, 156.84 214.53, 136.7 216.51 M136.7 216.51 C104 216.25, 67.47 217.09, 32 216.51 M136.7 216.51 C105.33 217.49, 73.64 216.34, 32 216.51 M32 216.51 C8.77 215.64, -0.49 206.75, 0 184.51 M32 216.51 C11.67 214.96, -0.27 204.37, 0 184.51 M0 184.51 C-2.05 148.68, 0.93 112.35, 0 32 M0 184.51 C-1.24 141.33, 0.35 99.79, 0 32 M0 32 C-1.01 9.53, 9.82 1.78, 32 0 M0 32 C-0.47 9.59, 9.89 0.37, 32 0" stroke="#1e1e1e" stroke-width="2" fill="none"></path></g><g transform="translate(891.1970032086024 78.21156287172627) rotate(0 43.549949645996094 12.5)"><text x="43.549949645996094" y="0" font-family="Virgil, Segoe UI Emoji" font-size="20px" fill="#1e1e1e" text-anchor="middle" style="white-space: pre;" direction="ltr" dominant-baseline="text-before-edge">m-service</text></g><g stroke-linecap="round" transform="translate(876.3953223411693 126.61985778808591) rotate(0 59.1939697265625 28.167648315429688)"><path d="M14.08 0 C37.53 2.02, 66.19 1.76, 104.3 0 M14.08 0 C36.4 0.04, 57.87 1.41, 104.3 0 M104.3 0 C114.12 -0.48, 119.68 4.54, 118.39 14.08 M104.3 0 C112.57 -1.87, 119.67 3.11, 118.39 14.08 M118.39 14.08 C119.58 22.3, 119.07 26.98, 118.39 42.25 M118.39 14.08 C118.29 21.15, 118.86 25.98, 118.39 42.25 M118.39 42.25 C120.08 51.39, 112.52 57.17, 104.3 56.34 M118.39 42.25 C118.72 50.57, 112.13 55.87, 104.3 56.34 M104.3 56.34 C78.85 54.39, 51.61 57.98, 14.08 56.34 M104.3 56.34 C77.97 57.57, 52.06 56.5, 14.08 56.34 M14.08 56.34 C6.35 57.18, 0.31 53.45, 0 42.25 M14.08 56.34 C4.64 57.79, 0.09 49.43, 0 42.25 M0 42.25 C1.75 35.29, 0.32 25.75, 0 14.08 M0 42.25 C0.22 30.54, -0.91 19.33, 0 14.08 M0 14.08 C0.99 5.03, 3.35 1.29, 14.08 0 M0 14.08 C-0.27 6.76, 5.45 -1.61, 14.08 0" stroke="#1e1e1e" stroke-width="2" fill="none"></path></g><g transform="translate(917.2093100731029 142.2875061035156) rotate(0 18.379981994628906 12.5)"><text x="18.379981994628906" y="0" font-family="Virgil, Segoe UI Emoji" font-size="20px" fill="#1e1e1e" text-anchor="middle" style="white-space: pre;" direction="ltr" dominant-baseline="text-before-edge">m-v1</text></g><g stroke-linecap="round" transform="translate(876.0868506614818 199.18858123224422) rotate(0 59.1939697265625 28.167648315429688)"><path d="M14.08 0 C46.39 0.78, 84.92 -1.48, 104.3 0 C113.51 -1.28, 118.37 2.3, 118.39 14.08 C118.64 18.82, 118.6 32.22, 118.39 42.25 C121.65 48.19, 115.8 57.69, 104.3 56.34 C74.27 56.66, 38.45 59.55, 14.08 56.34 C3.04 57.16, 2.45 50.74, 0 42.25 C-0.86 36.63, -1.62 25.31, 0 14.08 C2.01 7.25, 3.76 -0.02, 14.08 0" stroke="none" stroke-width="0" fill="#b2f2bb"></path><path d="M14.08 0 C46.29 -1.65, 80.51 0.82, 104.3 0 M14.08 0 C37.07 0.51, 59.88 0.01, 104.3 0 M104.3 0 C112.75 -0.29, 117.53 4.25, 118.39 14.08 M104.3 0 C113.43 -1.47, 116.27 6.29, 118.39 14.08 M118.39 14.08 C116.71 22.78, 119.46 33.8, 118.39 42.25 M118.39 14.08 C118.78 20.1, 118.81 26.91, 118.39 42.25 M118.39 42.25 C119.36 52.92, 111.85 56.8, 104.3 56.34 M118.39 42.25 C117.17 52.2, 112.91 57.92, 104.3 56.34 M104.3 56.34 C69 55.19, 33.33 55.26, 14.08 56.34 M104.3 56.34 C79.93 58.03, 54.91 56.5, 14.08 56.34 M14.08 56.34 C4.65 56.31, -0.96 53.13, 0 42.25 M14.08 56.34 C6.04 56.88, -1.06 52.74, 0 42.25 M0 42.25 C-0.99 30.62, 0.17 21.55, 0 14.08 M0 42.25 C0.31 32.41, 1.02 23.39, 0 14.08 M0 14.08 C-1.8 5.65, 4.62 1, 14.08 0 M0 14.08 C1.42 4.28, 6.34 1.17, 14.08 0" stroke="#1e1e1e" stroke-width="2" fill="none"></path></g><g transform="translate(912.7308402244701 214.8562295476739) rotate(0 22.54998016357422 12.5)"><text x="22.54998016357422" y="0" font-family="Virgil, Segoe UI Emoji" font-size="20px" fill="#1e1e1e" text-anchor="middle" style="white-space: pre;" direction="ltr" dominant-baseline="text-before-edge">m-v0</text></g><g stroke-linecap="round" transform="translate(849.0905283272018 329.0503692626953) rotate(0 84.3499145507813 108.25335693359375)"><path d="M32 0 C57.77 0.61, 88.03 0.48, 136.7 0 M32 0 C54.85 1.12, 78.05 0.42, 136.7 0 M136.7 0 C159.01 -0.91, 167.37 11.95, 168.7 32 M136.7 0 C156.43 -1.25, 169.38 9.26, 168.7 32 M168.7 32 C171.14 69.17, 170.21 108.73, 168.7 184.51 M168.7 32 C168.95 81.63, 168.24 132.42, 168.7 184.51 M168.7 184.51 C167.75 204.07, 159.95 215.78, 136.7 216.51 M168.7 184.51 C169.94 205.63, 156.56 217.2, 136.7 216.51 M136.7 216.51 C103.9 215.06, 74.54 216.59, 32 216.51 M136.7 216.51 C114.72 217.64, 95.14 217, 32 216.51 M32 216.51 C11.59 218.24, -0.54 207.42, 0 184.51 M32 216.51 C9.49 216.28, 0.16 206.94, 0 184.51 M0 184.51 C-0.26 147.76, 1.35 108.08, 0 32 M0 184.51 C1.74 137.18, 0.6 90.71, 0 32 M0 32 C-1.07 12, 10.02 -1.96, 32 0 M0 32 C1.64 10.02, 11.17 -0.25, 32 0" stroke="#1e1e1e" stroke-width="2" fill="none"></path></g><g transform="translate(875.0505121528856 334.0503692626953) rotate(0 58.389930725097656 12.5)"><text x="58.389930725097656" y="0" font-family="Virgil, Segoe UI Emoji" font-size="20px" fill="#1e1e1e" text-anchor="middle" style="white-space: pre;" direction="ltr" dominant-baseline="text-before-edge">http-service</text></g><g stroke-linecap="round" transform="translate(875.4365140933651 382.45866417905495) rotate(0 59.1939697265625 28.167648315429688)"><path d="M14.08 0 C31.69 -1.88, 51.94 -1.26, 104.3 0 C117.29 -1.63, 116.44 7.93, 118.39 14.08 C119.03 17.6, 120.42 24.7, 118.39 42.25 C121.22 50.4, 116.11 55.3, 104.3 56.34 C66.73 54.35, 32.29 56.73, 14.08 56.34 C6.02 54.01, 0.27 53.51, 0 42.25 C0.58 35.13, -0.95 26.11, 0 14.08 C2.01 6.69, 5.89 -0.91, 14.08 0" stroke="none" stroke-width="0" fill="#a5d8ff"></path><path d="M14.08 0 C39.74 -1.57, 66.81 -0.71, 104.3 0 M14.08 0 C43.63 -0.02, 71.53 1.07, 104.3 0 M104.3 0 C112.3 -1.08, 118.98 3.48, 118.39 14.08 M104.3 0 C112.6 2.3, 118.49 5.75, 118.39 14.08 M118.39 14.08 C119 19.96, 116.47 28.83, 118.39 42.25 M118.39 14.08 C117.93 19.35, 119.37 26.03, 118.39 42.25 M118.39 42.25 C119.46 51.46, 112.41 56.94, 104.3 56.34 M118.39 42.25 C118.37 49.7, 111.51 54.62, 104.3 56.34 M104.3 56.34 C77.32 55.79, 54.85 54.88, 14.08 56.34 M104.3 56.34 C70 57.4, 34.51 57.32, 14.08 56.34 M14.08 56.34 C3.67 56.14, 0.14 52.6, 0 42.25 M14.08 56.34 C3.49 55.41, -0.11 50.63, 0 42.25 M0 42.25 C0.09 31.19, -1.29 24.15, 0 14.08 M0 42.25 C-0.46 34.68, -0.25 24.79, 0 14.08 M0 14.08 C1.43 4.13, 5.13 -0.22, 14.08 0 M0 14.08 C-0.71 5.32, 2.51 -0.82, 14.08 0" stroke="#1e1e1e" stroke-width="2" fill="none"></path></g><g transform="translate(901.4105207461971 398.12631249448464) rotate(0 33.21996307373047 12.5)"><text x="33.21996307373047" y="0" font-family="Virgil, Segoe UI Emoji" font-size="20px" fill="#1e1e1e" text-anchor="middle" style="white-space: pre;" direction="ltr" dominant-baseline="text-before-edge">http-v1</text></g><g stroke-linecap="round" transform="translate(875.1280424136776 454.8946383001487) rotate(0 59.1939697265625 28.167648315429688)"><path d="M14.08 0 C34.31 -0.48, 52.71 1.32, 104.3 0 M14.08 0 C36.36 -1.12, 60.33 -1.19, 104.3 0 M104.3 0 C112.74 2, 118.48 5.61, 118.39 14.08 M104.3 0 C112.17 -0.02, 118.09 5.4, 118.39 14.08 M118.39 14.08 C116.49 21.69, 117.18 28.05, 118.39 42.25 M118.39 14.08 C119.2 19.96, 118.02 26.31, 118.39 42.25 M118.39 42.25 C118.37 49.95, 111.8 54.84, 104.3 56.34 M118.39 42.25 C117.86 52.16, 114.93 54.05, 104.3 56.34 M104.3 56.34 C83.6 56.37, 59.92 56.39, 14.08 56.34 M104.3 56.34 C68.91 56.95, 34.6 57.53, 14.08 56.34 M14.08 56.34 C3.65 55.53, -0.09 50.77, 0 42.25 M14.08 56.34 C5.9 57.17, -0.96 51.87, 0 42.25 M0 42.25 C0.02 34.87, 1.58 27.47, 0 14.08 M0 42.25 C0.8 31.65, 0.31 21.49, 0 14.08 M0 14.08 C-0.61 5.24, 2.8 -0.71, 14.08 0 M0 14.08 C-1.85 3.05, 6.02 -1.41, 14.08 0" stroke="#1e1e1e" stroke-width="2" fill="none"></path></g><g transform="translate(896.9320508975643 470.5622866155784) rotate(0 37.38996124267578 12.5)"><text x="37.38996124267578" y="0" font-family="Virgil, Segoe UI Emoji" font-size="20px" fill="#1e1e1e" text-anchor="middle" style="white-space: pre;" direction="ltr" dominant-baseline="text-before-edge">http-v0</text></g><g stroke-linecap="round" transform="translate(165.4839160114057 417.5325625858917) rotate(0 229.8610229492187 157.46280670166016)"><path d="M32 0 C132.39 -1.93, 231.83 -1.46, 427.72 0 M32 0 C161.59 0.71, 292.1 0.63, 427.72 0 M427.72 0 C449.55 0.29, 459.25 9.86, 459.72 32 M427.72 0 C447.12 0.12, 459.8 11.01, 459.72 32 M459.72 32 C458.25 98.26, 459.91 162.78, 459.72 282.93 M459.72 32 C458.02 123.74, 458.47 215.76, 459.72 282.93 M459.72 282.93 C460.37 304.53, 449.3 314.82, 427.72 314.93 M459.72 282.93 C457.71 302.04, 450.82 314.4, 427.72 314.93 M427.72 314.93 C319.99 314.27, 210.89 315.59, 32 314.93 M427.72 314.93 C316.34 312.97, 204.5 313.1, 32 314.93 M32 314.93 C10.87 315.15, 0.78 302.94, 0 282.93 M32 314.93 C9.19 316.05, -1.17 304.1, 0 282.93 M0 282.93 C1.09 226.83, 0.35 172.65, 0 32 M0 282.93 C-0.4 185.63, -0.38 86.31, 0 32 M0 32 C-1.62 11.17, 10.35 0.9, 32 0 M0 32 C-1.8 9.92, 8.49 -0.97, 32 0" stroke="#1e1e1e" stroke-width="2" fill="none"></path></g><g stroke-linecap="round" transform="translate(481.6674534641349 486.5099405781075) rotate(0 58.464447021484375 25.209442138671875)"><path d="M12.6 0 C51 4.96, 85.53 1.02, 104.32 0 C111.05 1.43, 116.5 2.91, 116.93 12.6 C120.94 19.85, 116.51 31.86, 116.93 37.81 C115.04 47.56, 114.77 53.15, 104.32 50.42 C70.93 48.41, 37.67 49.61, 12.6 50.42 C1.56 49.1, -3.41 48.56, 0 37.81 C-0.75 27.45, 3.47 19.97, 0 12.6 C0.36 0.75, 4.48 1.53, 12.6 0" stroke="none" stroke-width="0" fill="#a5d8ff"></path><path d="M12.6 0 C45.64 0.49, 80.95 0.92, 104.32 0 M12.6 0 C39.47 -0.08, 65.37 -0.5, 104.32 0 M104.32 0 C112.26 -0.8, 115.24 4.3, 116.93 12.6 M104.32 0 C112.81 0.34, 116.03 3.24, 116.93 12.6 M116.93 12.6 C118.11 19.08, 118.14 24.32, 116.93 37.81 M116.93 12.6 C117.5 22.9, 117.26 32.15, 116.93 37.81 M116.93 37.81 C117.18 46.11, 110.98 48.49, 104.32 50.42 M116.93 37.81 C118.69 45.69, 112.13 51.36, 104.32 50.42 M104.32 50.42 C77.33 51.3, 49.74 51.56, 12.6 50.42 M104.32 50.42 C85.58 51.4, 67.03 50.89, 12.6 50.42 M12.6 50.42 C4.98 49.1, -1.28 47.2, 0 37.81 M12.6 50.42 C3.03 50.26, -1.89 45.69, 0 37.81 M0 37.81 C-0.24 29.84, 1.72 24.75, 0 12.6 M0 37.81 C0.09 30.53, -0.83 24.58, 0 12.6 M0 12.6 C-0.31 5.11, 2.64 -0.65, 12.6 0 M0 12.6 C-2.17 3.23, 5.72 0.91, 12.6 0" stroke="#1e1e1e" stroke-width="2" fill="none"></path></g><g transform="translate(516.251926120385 499.21938271677936) rotate(0 23.879974365234375 12.5)"><text x="23.879974365234375" y="0" font-family="Virgil, Segoe UI Emoji" font-size="20px" fill="#1e1e1e" text-anchor="middle" style="white-space: pre;" direction="ltr" dominant-baseline="text-before-edge">http1</text></g><g stroke-linecap="round" transform="translate(482.76062986599476 569.6926577333643) rotate(0 58.464447021484375 17.5)"><path d="M8.75 0 C46.14 1.72, 86.46 -1, 108.18 0 C115.58 3.4, 118.19 6.5, 116.93 8.75 C115.2 14.48, 118.64 20.26, 116.93 26.25 C119.34 33.16, 116.06 35.26, 108.18 35 C83.85 32.81, 61.38 36.47, 8.75 35 C2.43 33.79, -2.96 31.18, 0 26.25 C0.02 19.51, -0.05 20.15, 0 8.75 C-1.82 0.54, 2.23 -2.7, 8.75 0" stroke="none" stroke-width="0" fill="#a5d8ff"></path><path d="M8.75 0 C39.34 -1.3, 71.86 0.89, 108.18 0 M8.75 0 C43.91 -0.55, 78.7 -0.09, 108.18 0 M108.18 0 C114.08 0.3, 116.15 2.08, 116.93 8.75 M108.18 0 C113.22 -0.87, 118.03 4.38, 116.93 8.75 M116.93 8.75 C118.53 13.83, 117.25 19.86, 116.93 26.25 M116.93 8.75 C117.09 14.98, 116.22 20.46, 116.93 26.25 M116.93 26.25 C118.46 31.62, 113.49 35.82, 108.18 35 M116.93 26.25 C116.83 33.52, 112.89 35.14, 108.18 35 M108.18 35 C69.82 36.55, 36.09 35.71, 8.75 35 M108.18 35 C72.5 34.45, 35.4 35.6, 8.75 35 M8.75 35 C1.9 34.86, -1.64 31.62, 0 26.25 M8.75 35 C2.18 35.88, -2.04 31.92, 0 26.25 M0 26.25 C-0.73 22.19, 1.54 18.06, 0 8.75 M0 26.25 C0.01 22.35, -0.54 17.37, 0 8.75 M0 8.75 C-1.89 2.07, 4.24 0.79, 8.75 0 M0 8.75 C2 4.02, 0.67 1.86, 8.75 0" stroke="#1e1e1e" stroke-width="2" fill="none"></path></g><g transform="translate(512.93510648953 574.6926577333643) rotate(0 28.28997039794922 12.5)"><text x="28.28997039794922" y="0" font-family="Virgil, Segoe UI Emoji" font-size="20px" fill="#1e1e1e" text-anchor="middle" style="white-space: pre;" direction="ltr" dominant-baseline="text-before-edge">http2</text></g><g stroke-linecap="round" transform="translate(482.33631345974476 650.883481970202) rotate(0 58.464447021484375 25.209442138671875)"><path d="M12.6 0 C45.32 3.99, 76.16 4.18, 104.32 0 C111.31 -0.84, 118.86 2.31, 116.93 12.6 C119.59 22.18, 119.24 29.87, 116.93 37.81 C113.98 46.87, 110.97 47.78, 104.32 50.42 C79.68 50.28, 53.03 50.59, 12.6 50.42 C1.06 53.74, -3.4 46.57, 0 37.81 C-1.85 30.29, -0.72 24.82, 0 12.6 C-2.67 5.93, 3.57 2.66, 12.6 0" stroke="none" stroke-width="0" fill="#a5d8ff"></path><path d="M12.6 0 C36.74 -0.06, 58.93 -1.02, 104.32 0 M12.6 0 C36.47 0.1, 59.87 -0.46, 104.32 0 M104.32 0 C112.04 -0.76, 117.89 5.48, 116.93 12.6 M104.32 0 C112.47 1.5, 115 6.16, 116.93 12.6 M116.93 12.6 C118.13 20.85, 117.23 28.05, 116.93 37.81 M116.93 12.6 C117.47 19.8, 116.45 27.87, 116.93 37.81 M116.93 37.81 C116.84 47.47, 111.75 50.54, 104.32 50.42 M116.93 37.81 C118.46 45.8, 114.55 48.21, 104.32 50.42 M104.32 50.42 C74.59 50.59, 42.56 51.16, 12.6 50.42 M104.32 50.42 C82.34 50.8, 60.55 50.64, 12.6 50.42 M12.6 50.42 C3.56 51.18, -1.78 46.07, 0 37.81 M12.6 50.42 C2.8 52.51, 0.52 45.47, 0 37.81 M0 37.81 C-1.33 28.44, 0.26 22.01, 0 12.6 M0 37.81 C-0.75 28.69, 0.86 20.8, 0 12.6 M0 12.6 C1.74 5.16, 2.25 1.62, 12.6 0 M0 12.6 C2.14 5.45, 3.82 -1.07, 12.6 0" stroke="#1e1e1e" stroke-width="2" fill="none"></path></g><g transform="translate(512.8207876418737 663.5929241088738) rotate(0 27.97997283935547 12.5)"><text x="27.97997283935547" y="0" font-family="Virgil, Segoe UI Emoji" font-size="20px" fill="#1e1e1e" text-anchor="middle" style="white-space: pre;" direction="ltr" dominant-baseline="text-before-edge">http3</text></g><g stroke-linecap="round" transform="translate(358.3992101882604 482.72022818602227) rotate(0 32.3026123046875 50.57933044433594)"><path d="M16.15 0 C27.47 -1.42, 43.56 -2.47, 48.45 0 C60.56 2.04, 67.34 7.79, 64.61 16.15 C62.36 39.51, 63.56 58.93, 64.61 85.01 C63.29 92.36, 61.56 100.67, 48.45 101.16 C36.7 104.33, 27.85 101.37, 16.15 101.16 C1.93 101.43, 1.53 93.96, 0 85.01 C-2.44 70.63, -0.4 55.45, 0 16.15 C-2.82 7.75, 4.77 1.17, 16.15 0" stroke="none" stroke-width="0" fill="#ffec99"></path><path d="M16.15 0 C25.83 -1.61, 37.22 0.15, 48.45 0 M16.15 0 C25.98 -0.24, 36.98 0.77, 48.45 0 M48.45 0 C59 1.3, 62.93 7.08, 64.61 16.15 M48.45 0 C59.26 0.28, 65.91 6.73, 64.61 16.15 M64.61 16.15 C64.59 37.29, 62.77 63.46, 64.61 85.01 M64.61 16.15 C64.38 35.86, 63.94 54.37, 64.61 85.01 M64.61 85.01 C65.93 95.42, 60.81 99.24, 48.45 101.16 M64.61 85.01 C65.48 96.67, 59.13 102.6, 48.45 101.16 M48.45 101.16 C37.11 100, 29.38 100.27, 16.15 101.16 M48.45 101.16 C38.67 101.46, 28.63 101.01, 16.15 101.16 M16.15 101.16 C4.17 102.98, 0.45 95.13, 0 85.01 M16.15 101.16 C5.55 103.39, 0.24 94.52, 0 85.01 M0 85.01 C0.73 68.38, -0.82 52.99, 0 16.15 M0 85.01 C0.42 67.74, -1.43 50.33, 0 16.15 M0 16.15 C1.86 6.47, 5.06 -0.93, 16.15 0 M0 16.15 C0.91 5.11, 4.56 1, 16.15 0" stroke="#1e1e1e" stroke-width="2" fill="none"></path></g><g transform="translate(368.5418417190221 520.7995586303582) rotate(0 22.15998077392578 12.5)"><text x="22.15998077392578" y="0" font-family="Virgil, Segoe UI Emoji" font-size="20px" fill="#1e1e1e" text-anchor="middle" style="white-space: pre;" direction="ltr" dominant-baseline="text-before-edge">nginx</text></g><g stroke-linecap="round" transform="translate(357.36570188747913 601.1374845123227) rotate(0 32.3026123046875 50.57933044433594)"><path d="M16.15 0 C26.42 2.34, 36.75 2.71, 48.45 0 C60.29 2.05, 64.87 2.44, 64.61 16.15 C62.69 34.64, 66.34 59.47, 64.61 85.01 C63.4 92.81, 58.32 98.01, 48.45 101.16 C32.34 101.49, 24.64 99.4, 16.15 101.16 C3.01 100.48, -2.7 93.1, 0 85.01 C-2.6 63.42, -0.39 38.26, 0 16.15 C2.58 8.28, 7.4 2.46, 16.15 0" stroke="none" stroke-width="0" fill="#ffec99"></path><path d="M16.15 0 C23.42 -0.79, 29.26 -0.7, 48.45 0 M16.15 0 C24.51 0.45, 32.24 0.64, 48.45 0 M48.45 0 C59.25 0.24, 65.74 6.55, 64.61 16.15 M48.45 0 C59.97 0.31, 64.89 5.26, 64.61 16.15 M64.61 16.15 C63.48 30.26, 64.76 45.32, 64.61 85.01 M64.61 16.15 C64.93 40.94, 65.06 65.13, 64.61 85.01 M64.61 85.01 C65.36 96.56, 59.14 102.41, 48.45 101.16 M64.61 85.01 C64.84 96.03, 60.12 99.64, 48.45 101.16 M48.45 101.16 C40.7 99.35, 32.76 100.36, 16.15 101.16 M48.45 101.16 C36.93 102.04, 26.84 100.81, 16.15 101.16 M16.15 101.16 C5.53 103.1, 0.21 94.69, 0 85.01 M16.15 101.16 C3.52 101.74, -0.36 96.82, 0 85.01 M0 85.01 C-0.62 71.05, 1.02 56.2, 0 16.15 M0 85.01 C1.6 61.6, 0.51 36.64, 0 16.15 M0 16.15 C0.79 5.15, 4.66 0.87, 16.15 0 M0 16.15 C2.17 6.19, 7.67 -0.91, 16.15 0" stroke="#1e1e1e" stroke-width="2" fill="none"></path></g><g transform="translate(367.50833341824085 639.2168149566586) rotate(0 22.15998077392578 12.5)"><text x="22.15998077392578" y="0" font-family="Virgil, Segoe UI Emoji" font-size="20px" fill="#1e1e1e" text-anchor="middle" style="white-space: pre;" direction="ltr" dominant-baseline="text-before-edge">nginx</text></g><g stroke-linecap="round"><g transform="translate(424.00443479763544 524.0154468010271) rotate(0 27.363524350478627 -6.532447210068256)"><path d="M-0.41 -0.46 C8.88 -2.42, 46.13 -10.33, 55.3 -12.3 M1.57 -1.74 C10.8 -4, 45.96 -11.94, 54.66 -14.02" stroke="#1e1e1e" stroke-width="2" fill="none"></path></g><g transform="translate(424.00443479763544 524.0154468010271) rotate(0 27.363524350478627 -6.532447210068256)"><path d="M31.08 1.32 C36.53 -1.64, 44.72 -6.82, 54.66 -14.02 M31.08 1.32 C39.83 -4.36, 49 -9.5, 54.66 -14.02" stroke="#1e1e1e" stroke-width="2" fill="none"></path></g><g transform="translate(424.00443479763544 524.0154468010271) rotate(0 27.363524350478627 -6.532447210068256)"><path d="M26.73 -17.43 C33.25 -15.48, 42.57 -15.77, 54.66 -14.02 M26.73 -17.43 C36.92 -16.3, 47.67 -14.59, 54.66 -14.02" stroke="#1e1e1e" stroke-width="2" fill="none"></path></g></g><mask></mask><g stroke-linecap="round"><g transform="translate(429.1734758184213 562.3557283601338) rotate(0 22.838231719298562 11.899700601424115)"><path d="M-0.13 0.78 C7.22 4.79, 37.03 20.96, 44.67 24.82 M-1.66 0.15 C6 3.77, 39.09 19.03, 46.86 23.23" stroke="#1e1e1e" stroke-width="2" fill="none"></path></g><g transform="translate(429.1734758184213 562.3557283601338) rotate(0 22.838231719298562 11.899700601424115)"><path d="M21.26 20.41 C31.49 19.75, 40.79 22.43, 46.86 23.23 M21.26 20.41 C29.59 21.28, 37.37 21.97, 46.86 23.23" stroke="#1e1e1e" stroke-width="2" fill="none"></path></g><g transform="translate(429.1734758184213 562.3557283601338) rotate(0 22.838231719298562 11.899700601424115)"><path d="M29.06 4.62 C36.68 9.44, 43.27 17.62, 46.86 23.23 M29.06 4.62 C35.04 10.46, 40.39 16.08, 46.86 23.23" stroke="#1e1e1e" stroke-width="2" fill="none"></path></g></g><mask></mask><g stroke-linecap="round"><g transform="translate(429.7113176152963 672.4307339273741) rotate(0 21.979339599609375 1.0780893563082259)"><path d="M0.31 0.32 C7.67 0.68, 36.85 1.93, 44.14 2.23 M-0.19 0.01 C7.11 0.47, 36.48 2.52, 43.8 2.97" stroke="#1e1e1e" stroke-width="2" fill="none"></path></g><g transform="translate(429.7113176152963 672.4307339273741) rotate(0 21.979339599609375 1.0780893563082259)"><path d="M22.67 9.11 C29.62 7.52, 35.54 5.47, 43.8 2.97 M22.67 9.11 C29.3 7.29, 35.02 5.8, 43.8 2.97" stroke="#1e1e1e" stroke-width="2" fill="none"></path></g><g transform="translate(429.7113176152963 672.4307339273741) rotate(0 21.979339599609375 1.0780893563082259)"><path d="M23.66 -5.91 C30.32 -2.97, 35.94 -0.49, 43.8 2.97 M23.66 -5.91 C29.94 -3.31, 35.36 -0.38, 43.8 2.97" stroke="#1e1e1e" stroke-width="2" fill="none"></path></g></g><mask></mask><g stroke-linecap="round" transform="translate(204.40370673713676 481.260091314135) rotate(0 45.754974365234375 42.5)"><path d="M21.25 0 C36.17 -0.6, 53.88 3.62, 70.26 0 C81.03 0.36, 88.06 7.36, 91.51 21.25 C90.44 33.11, 88.45 52.08, 91.51 63.75 C90.87 80.57, 81.6 87.37, 70.26 85 C59.29 87.65, 44.98 84.29, 21.25 85 C5.59 87.73, 2.59 75.48, 0 63.75 C-1.24 50.65, 2.11 37.12, 0 21.25 C0.58 4.85, 10.19 1.7, 21.25 0" stroke="none" stroke-width="0" fill="#ffc9c9"></path><path d="M21.25 0 C39.01 0.09, 56.13 -1.91, 70.26 0 M21.25 0 C30.97 0.52, 41.17 0.74, 70.26 0 M70.26 0 C83.45 0.12, 92.84 6.72, 91.51 21.25 M70.26 0 C86.25 -2.21, 92.38 7.98, 91.51 21.25 M91.51 21.25 C92 34.6, 90.46 45.11, 91.51 63.75 M91.51 21.25 C90.47 35.85, 90.98 51.3, 91.51 63.75 M91.51 63.75 C89.73 77.77, 83.21 86.82, 70.26 85 M91.51 63.75 C92.03 77.17, 84.59 87.23, 70.26 85 M70.26 85 C55.54 84.29, 40.73 83.04, 21.25 85 M70.26 85 C57.81 85.19, 44.92 85.27, 21.25 85 M21.25 85 C5.13 86.62, 1.86 79, 0 63.75 M21.25 85 C6.71 83.93, 0.91 77.64, 0 63.75 M0 63.75 C0.52 54.52, -0.97 40.84, 0 21.25 M0 63.75 C0.79 49.48, 0.89 33.99, 0 21.25 M0 21.25 C1.14 7.23, 5.45 0.36, 21.25 0 M0 21.25 C-1.12 5.4, 6.24 -2.18, 21.25 0" stroke="#1e1e1e" stroke-width="2" fill="none"></path></g><g transform="translate(221.14870185432426 511.260091314135) rotate(0 29.009979248046875 12.5)"><text x="29.009979248046875" y="0" font-family="Virgil, Segoe UI Emoji" font-size="20px" fill="#1e1e1e" text-anchor="middle" style="white-space: pre;" direction="ltr" dominant-baseline="text-before-edge">a1.com</text></g><g stroke-linecap="round" transform="translate(200.2075154632155 597.3467737076987) rotate(0 45.754974365234375 42.5)"><path d="M21.25 0 C31.33 -0.46, 44.76 -0.54, 70.26 0 C85.95 -1.82, 89.13 6.4, 91.51 21.25 C90.31 33.47, 88.12 42.75, 91.51 63.75 C90.9 79.09, 87.01 87.9, 70.26 85 C51.32 87.4, 37.96 82.23, 21.25 85 C8.51 85.68, 2.06 76.82, 0 63.75 C0.1 47.18, 2.63 36.79, 0 21.25 C2.31 3.55, 6.05 -0.11, 21.25 0" stroke="none" stroke-width="0" fill="#ffc9c9"></path><path d="M21.25 0 C34.63 1.96, 51.4 -0.09, 70.26 0 M21.25 0 C37.46 -0.25, 55.32 -0.49, 70.26 0 M70.26 0 C86.02 -1.92, 92.27 7.86, 91.51 21.25 M70.26 0 C84.33 1.44, 91.75 7.34, 91.51 21.25 M91.51 21.25 C92.21 34.64, 91.09 48.42, 91.51 63.75 M91.51 21.25 C90.49 32.95, 90.77 45.71, 91.51 63.75 M91.51 63.75 C91.96 77.27, 84.57 86.94, 70.26 85 M91.51 63.75 C91.75 76.67, 82.56 85.58, 70.26 85 M70.26 85 C55.67 82.73, 41.54 85.94, 21.25 85 M70.26 85 C52.64 86.04, 37.9 85.78, 21.25 85 M21.25 85 C6.75 84.07, 0.79 77.68, 0 63.75 M21.25 85 C6.26 86, 2.17 78.72, 0 63.75 M0 63.75 C1.24 45.72, 0.91 30.92, 0 21.25 M0 63.75 C0.29 47.85, -1.1 31.98, 0 21.25 M0 21.25 C-0.97 5.62, 6.35 -1.9, 21.25 0 M0 21.25 C1.5 6.77, 6.31 -1.89, 21.25 0" stroke="#1e1e1e" stroke-width="2" fill="none"></path></g><g transform="translate(212.54251454768814 627.3467737076987) rotate(0 33.41997528076172 12.5)"><text x="33.41997528076172" y="0" font-family="Virgil, Segoe UI Emoji" font-size="20px" fill="#1e1e1e" text-anchor="middle" style="white-space: pre;" direction="ltr" dominant-baseline="text-before-edge">a2.com</text></g><g stroke-linecap="round"><g transform="translate(298.04427070198045 520.700108152436) rotate(0 28.424243230226892 1.3616895360151489)"><path d="M-0.31 0.49 C9 1.11, 47.37 3.09, 56.8 3.48 M1.73 -0.3 C10.8 0.01, 46.91 1.01, 55.82 1.75" stroke="#1e1e1e" stroke-width="2" fill="none"></path></g><g transform="translate(298.04427070198045 520.700108152436) rotate(0 28.424243230226892 1.3616895360151489)"><path d="M28.62 10.1 C39.7 6.94, 50.38 2.9, 55.82 1.75 M28.62 10.1 C37.68 6.63, 45.59 5.43, 55.82 1.75" stroke="#1e1e1e" stroke-width="2" fill="none"></path></g><g transform="translate(298.04427070198045 520.700108152436) rotate(0 28.424243230226892 1.3616895360151489)"><path d="M29.61 -9.34 C40.27 -5.18, 50.58 -1.89, 55.82 1.75 M29.61 -9.34 C38.5 -6.86, 46.1 -2.12, 55.82 1.75" stroke="#1e1e1e" stroke-width="2" fill="none"></path></g></g><mask></mask><g stroke-linecap="round"><g transform="translate(299.44685859260545 539.574378096672) rotate(0 26.905749577883114 49.81769289838769)"><path d="M-0.05 0.75 C8.87 17.29, 44.12 83.26, 53.23 99.71 M-1.54 0.1 C7.81 16.81, 46.33 84.53, 55.63 101.28" stroke="#1e1e1e" stroke-width="2" fill="none"></path></g><g transform="translate(299.44685859260545 539.574378096672) rotate(0 26.905749577883114 49.81769289838769)"><path d="M32.86 81.75 C40.43 86.14, 45.54 93.79, 55.63 101.28 M32.86 81.75 C39.82 87.87, 45.82 93.61, 55.63 101.28" stroke="#1e1e1e" stroke-width="2" fill="none"></path></g><g transform="translate(299.44685859260545 539.574378096672) rotate(0 26.905749577883114 49.81769289838769)"><path d="M50.74 71.68 C53.46 78.82, 53.66 89.24, 55.63 101.28 M50.74 71.68 C52.74 80.47, 53.69 89.05, 55.63 101.28" stroke="#1e1e1e" stroke-width="2" fill="none"></path></g></g><mask></mask><g stroke-linecap="round"><g transform="translate(296.8071858733717 643.732546412777) rotate(0 27.481201171875 0.849213319219416)"><path d="M-0.59 0.07 C8.72 0.19, 46.34 1.4, 55.76 1.48 M1.31 -0.94 C10.53 -0.7, 46.17 2.54, 55.23 2.91" stroke="#1e1e1e" stroke-width="2" fill="none"></path></g><g transform="translate(296.8071858733717 643.732546412777) rotate(0 27.481201171875 0.849213319219416)"><path d="M28.82 10.53 C36.69 9.74, 44.03 7.74, 55.23 2.91 M28.82 10.53 C34.13 9.5, 39.66 7.43, 55.23 2.91" stroke="#1e1e1e" stroke-width="2" fill="none"></path></g><g transform="translate(296.8071858733717 643.732546412777) rotate(0 27.481201171875 0.849213319219416)"><path d="M30.09 -8.23 C37.71 -3.49, 44.66 0.07, 55.23 2.91 M30.09 -8.23 C35.22 -5.43, 40.49 -3.68, 55.23 2.91" stroke="#1e1e1e" stroke-width="2" fill="none"></path></g></g><mask></mask><g stroke-linecap="round" transform="translate(12.301667400705185 505.76784932581745) rotate(0 50.6046142578125 17.5)"><path d="M8.75 0 C34 0.48, 58.46 -1.7, 92.46 0 C100.66 -0.61, 102.38 5.5, 101.21 8.75 C100.21 14.1, 103.77 24.33, 101.21 26.25 C98.77 33.51, 98.97 37.06, 92.46 35 C72.12 36.52, 45.08 39.05, 8.75 35 C4.61 37.31, -3.53 31.05, 0 26.25 C2.94 21.66, -0.41 13.59, 0 8.75 C1.96 4.56, 3.5 2.8, 8.75 0" stroke="none" stroke-width="0" fill="#b2f2bb"></path><path d="M8.75 0 C29.42 1.03, 48.89 0.2, 92.46 0 M8.75 0 C37.24 -0.41, 65.9 -1.18, 92.46 0 M92.46 0 C97.01 0.98, 100.19 2.78, 101.21 8.75 M92.46 0 C96.4 -0.53, 100.48 3.79, 101.21 8.75 M101.21 8.75 C102.79 12.84, 100.63 16.27, 101.21 26.25 M101.21 8.75 C100.52 15.92, 101.09 23.04, 101.21 26.25 M101.21 26.25 C99.65 31.43, 96.4 34.15, 92.46 35 M101.21 26.25 C102.73 32.99, 100.29 36.1, 92.46 35 M92.46 35 C76.61 35.45, 57.66 36.57, 8.75 35 M92.46 35 C69.29 35.72, 45.22 34.97, 8.75 35 M8.75 35 C2.45 36.07, -1.05 32.83, 0 26.25 M8.75 35 C4.22 36.75, 1.54 32.77, 0 26.25 M0 26.25 C0.3 19.15, -1.3 13.12, 0 8.75 M0 26.25 C-0.41 21.94, -0.33 18.3, 0 8.75 M0 8.75 C1.84 1.03, 3.11 -1.92, 8.75 0 M0 8.75 C0.18 3.89, 1.76 -1.52, 8.75 0" stroke="#1e1e1e" stroke-width="2" fill="none"></path></g><g transform="translate(40.18629569660362 510.76784932581745) rotate(0 22.719985961914062 12.5)"><text x="22.719985961914062" y="0" font-family="Virgil, Segoe UI Emoji" font-size="20px" fill="#1e1e1e" text-anchor="middle" style="white-space: pre;" direction="ltr" dominant-baseline="text-before-edge">SDK1</text></g><g stroke-linecap="round" transform="translate(15.511567303048935 613.732082724255) rotate(0 50.6046142578125 17.5)"><path d="M8.75 0 C34.75 0.57, 57.19 3.77, 92.46 0 C101.19 2.01, 103.67 1.57, 101.21 8.75 C99.31 14.52, 102.04 19.6, 101.21 26.25 C100.12 33.42, 100.55 37.23, 92.46 35 C67.69 38.61, 36 35.26, 8.75 35 C2.81 37.08, -1.33 35.65, 0 26.25 C1.74 22.1, 0.54 17.52, 0 8.75 C-2.79 0.42, 0.3 2.37, 8.75 0" stroke="none" stroke-width="0" fill="#b2f2bb"></path><path d="M8.75 0 C41.29 -0.4, 73.53 -0.11, 92.46 0 M8.75 0 C34.15 1.04, 60.33 0.48, 92.46 0 M92.46 0 C96.65 -0.46, 100.57 3.68, 101.21 8.75 M92.46 0 C96.25 -0.16, 99.81 5.01, 101.21 8.75 M101.21 8.75 C102.85 14.58, 100.2 18.62, 101.21 26.25 M101.21 8.75 C100.5 14.15, 100.36 19.76, 101.21 26.25 M101.21 26.25 C102.53 32.88, 100.03 35.96, 92.46 35 M101.21 26.25 C98.96 33.94, 100.43 36.24, 92.46 35 M92.46 35 C68.48 34.61, 45.86 37.22, 8.75 35 M92.46 35 C64.18 35.21, 35.84 35.04, 8.75 35 M8.75 35 C4.05 36.52, 1.34 32.68, 0 26.25 M8.75 35 C4.23 35.17, -1.88 32.5, 0 26.25 M0 26.25 C-1.53 22.99, -0.11 16.87, 0 8.75 M0 26.25 C0.85 21.61, 0.13 17.79, 0 8.75 M0 8.75 C0.15 3.77, 1.91 -1.32, 8.75 0 M0 8.75 C-0.44 1.19, 1.21 1.1, 8.75 0" stroke="#1e1e1e" stroke-width="2" fill="none"></path></g><g transform="translate(38.98619956623253 618.732082724255) rotate(0 27.129981994628906 12.5)"><text x="27.129981994628906" y="0" font-family="Virgil, Segoe UI Emoji" font-size="20px" fill="#1e1e1e" text-anchor="middle" style="white-space: pre;" direction="ltr" dominant-baseline="text-before-edge">SDK2</text></g><g stroke-linecap="round"><g transform="translate(118.69632072101768 522.9228712089475) rotate(0 36.854061823484074 -0.16109151603910732)"><path d="M0.12 0.13 C12.5 -0.18, 62.04 -1.13, 74.18 -1.11 M-1.27 -0.84 C10.99 -1.08, 60.69 0.16, 73.47 0.01" stroke="#1e1e1e" stroke-width="2" fill="none"></path></g><g transform="translate(118.69632072101768 522.9228712089475) rotate(0 36.854061823484074 -0.16109151603910732)"><path d="M45.2 10.04 C53.72 7.82, 60.55 2.79, 73.47 0.01 M45.2 10.04 C54.3 6.33, 64.67 3.44, 73.47 0.01" stroke="#1e1e1e" stroke-width="2" fill="none"></path></g><g transform="translate(118.69632072101768 522.9228712089475) rotate(0 36.854061823484074 -0.16109151603910732)"><path d="M45.37 -10.48 C53.97 -6.63, 60.75 -5.59, 73.47 0.01 M45.37 -10.48 C54.3 -7.03, 64.62 -2.76, 73.47 0.01" stroke="#1e1e1e" stroke-width="2" fill="none"></path></g></g><mask></mask><g stroke-linecap="round"><g transform="translate(123.04376334797081 633.9857753512081) rotate(0 35.456939697265625 0.7012939453125)"><path d="M0.47 -0.79 C12.14 -0.48, 58.5 1.64, 70.14 1.99 M-0.75 1.41 C11.3 1.35, 60.79 -0.02, 72.45 0.18" stroke="#1e1e1e" stroke-width="2" fill="none"></path></g><g transform="translate(123.04376334797081 633.9857753512081) rotate(0 35.456939697265625 0.7012939453125)"><path d="M44.36 10.69 C51.75 6.04, 62.77 3.04, 72.45 0.18 M44.36 10.69 C52.36 8.05, 60.02 4.52, 72.45 0.18" stroke="#1e1e1e" stroke-width="2" fill="none"></path></g><g transform="translate(123.04376334797081 633.9857753512081) rotate(0 35.456939697265625 0.7012939453125)"><path d="M44.17 -9.83 C51.64 -8.12, 62.72 -4.74, 72.45 0.18 M44.17 -9.83 C52.06 -6.45, 59.78 -3.97, 72.45 0.18" stroke="#1e1e1e" stroke-width="2" fill="none"></path></g></g><mask></mask><g mask="url(#mask-GfXLK9MI9_F1Eb5b-ZsuA)" stroke-linecap="round"><g transform="translate(609.5564567403678 199.83691406410523) rotate(0 131.43050346390498 12.982674997025612)"><path d="M0.98 0.74 C44.48 5.09, 218.41 20.83, 262.19 25.09 M0.03 0.09 C43.83 4.65, 220.67 21.56, 264.54 26.17" stroke="#1e1e1e" stroke-width="2" fill="none"></path></g><g transform="translate(609.5564567403678 199.83691406410523) rotate(0 131.43050346390498 12.982674997025612)"><path d="M235.47 33.58 C248.32 29.27, 257.18 28.72, 264.54 26.17 M235.47 33.58 C245.12 30.88, 254.38 28.83, 264.54 26.17" stroke="#1e1e1e" stroke-width="2" fill="none"></path></g><g transform="translate(609.5564567403678 199.83691406410523) rotate(0 131.43050346390498 12.982674997025612)"><path d="M237.51 13.16 C249.38 16.98, 257.43 24.55, 264.54 26.17 M237.51 13.16 C246.56 17.12, 255.15 21.73, 264.54 26.17" stroke="#1e1e1e" stroke-width="2" fill="none"></path></g></g><mask id="mask-GfXLK9MI9_F1Eb5b-ZsuA"><rect x="0" y="0" fill="#fff" width="972.4174636681778" height="325.8022640581564"></rect><rect x="722.7069690543703" y="200.31958906113084" fill="#000" width="36.55998229980469" height="25" opacity="1"></rect></mask><g transform="translate(722.7069690543703 200.31958906113084) rotate(0 19.138753266502192 12.646130390297657)"><text x="18.279991149902344" y="0" font-family="Virgil, Segoe UI Emoji" font-size="20px" fill="#1e1e1e" text-anchor="middle" style="white-space: pre;" direction="ltr" dominant-baseline="text-before-edge">v=0</text></g><g stroke-linecap="round"><g transform="translate(602.9265884119457 584.0966167355413) rotate(0 132.3743344259575 -79.12009401175965)"><path d="M-0.04 -0.36 C43.98 -26.84, 221.02 -132.06, 265 -158.31 M-1.52 -1.6 C42.29 -27.93, 219.55 -130.41, 264.18 -156.82" stroke="#1e1e1e" stroke-width="2" fill="none"></path></g><g transform="translate(602.9265884119457 584.0966167355413) rotate(0 132.3743344259575 -79.12009401175965)"><path d="M245.01 -133.73 C251.45 -141.93, 259.09 -152.46, 264.18 -156.82 M245.01 -133.73 C250.28 -141.01, 257.79 -149.48, 264.18 -156.82" stroke="#1e1e1e" stroke-width="2" fill="none"></path></g><g transform="translate(602.9265884119457 584.0966167355413) rotate(0 132.3743344259575 -79.12009401175965)"><path d="M234.66 -151.45 C245.05 -153.03, 256.55 -156.94, 264.18 -156.82 M234.66 -151.45 C243.5 -152.82, 254.43 -155.44, 264.18 -156.82" stroke="#1e1e1e" stroke-width="2" fill="none"></path></g></g><mask></mask></svg>